<svg width="100" height="94" viewBox="0 0 100 94" fill="none" xmlns="http://www.w3.org/2000/svg">
<path d="M97.3031 45.7134H92.576C91.7328 20.8147 71.3513 0.748047 46.3476 0.748047C21.3439 0.748047 0.0175781 21.5495 0.0175781 47.078C0.0175781 72.6066 20.819 93.408 46.3476 93.408C61.3721 93.408 75.5536 86.0532 84.273 73.6563C85.3227 72.1867 84.9028 70.2938 83.5382 69.2441C82.0686 68.1944 80.0707 68.6143 79.126 69.9789C71.5612 80.6962 59.2693 86.998 46.3476 86.998C24.2865 86.998 6.42427 69.0342 6.42427 47.0747C6.42427 25.1151 24.3915 7.15812 46.3476 7.15812C68.3037 7.15812 85.4277 24.2821 86.1659 45.7134H81.5437C79.5459 45.7134 78.3912 47.8162 79.3393 49.4958L87.219 62.7325C88.1638 64.412 90.5815 64.412 91.5263 62.7325L99.4059 49.4958C100.456 47.8162 99.301 45.7134 97.3031 45.7134Z" fill="white"/>
<path d="M37.5507 20.9434H34.9095C33.7006 20.9434 32.7085 21.9355 32.7085 23.1444V26.0057H27.0941C23.7926 26.0057 21.1514 28.647 21.1514 31.9485V64.4154C21.1514 67.717 23.7926 70.3582 27.0941 70.3582H65.2837C68.5853 70.3582 71.2265 67.717 71.2265 64.4154V31.9485C71.2265 28.647 68.5853 26.0057 65.2837 26.0057H59.6694V23.1444C59.6694 21.9355 58.6772 20.9434 57.4684 20.9434H54.8271C53.6183 20.9434 52.6261 21.9355 52.6261 23.1444V26.0057H39.7484V23.1444C39.7484 21.9321 38.7562 20.9434 37.5474 20.9434H37.5507ZM67.1563 39.1036V64.4154C67.1563 65.4076 66.3876 66.1762 65.3955 66.1762H27.2059C26.2137 66.1762 25.4451 65.4076 25.4451 64.4154V39.1036H67.1563Z" fill="#ED6769"/>
<path d="M56.0427 50.8777H61.7654C62.5341 50.8777 63.1978 50.2174 63.1978 49.4453V45.1516C63.1978 44.3829 62.5374 43.7192 61.7654 43.7192H56.0427C55.274 43.7192 54.6104 44.3795 54.6104 45.1516V49.4453C54.6104 50.3257 55.2707 50.8777 56.0427 50.8777Z" fill="white"/>
<path d="M43.3845 50.8777H49.1072C49.8759 50.8777 50.5396 50.2174 50.5396 49.4453V45.1516C50.5396 44.3829 49.8792 43.7192 49.1072 43.7192H43.3845C42.6158 43.7192 41.9521 44.3795 41.9521 45.1516V49.4453C41.9521 50.3257 42.6125 50.8777 43.3845 50.8777Z" fill="white"/>
<path d="M30.7273 50.8777H36.45C37.2186 50.8777 37.8823 50.2174 37.8823 49.4453V45.1516C37.8823 44.3829 37.222 43.7192 36.45 43.7192H30.7273C29.9586 43.7192 29.2949 44.3795 29.2949 45.1516V49.4453C29.4033 50.3257 29.9552 50.8777 30.7273 50.8777Z" fill="white"/>
<path d="M56.0427 62.2141H61.7654C62.5341 62.2141 63.1978 61.5538 63.1978 60.7817V56.488C63.1978 55.7194 62.5374 55.0557 61.7654 55.0557H56.0427C55.274 55.0557 54.6104 55.716 54.6104 56.488V60.7817C54.6104 61.6621 55.2707 62.2141 56.0427 62.2141Z" fill="white"/>
<path d="M43.3845 62.2141H49.1072C49.8759 62.2141 50.5396 61.5538 50.5396 60.7817V56.488C50.5396 55.7194 49.8792 55.0557 49.1072 55.0557H43.3845C42.6158 55.0557 41.9521 55.716 41.9521 56.488V60.7817C41.9521 61.6621 42.6125 62.2141 43.3845 62.2141Z" fill="white"/>
<path d="M30.7273 62.2141H36.45C37.2186 62.2141 37.8823 61.5538 37.8823 60.7817V56.488C37.8823 55.7194 37.222 55.0557 36.45 55.0557H30.7273C29.9586 55.0557 29.2949 55.716 29.2949 56.488V60.7817C29.4033 61.6621 29.9552 62.2141 30.7273 62.2141Z" fill="white"/>
</svg>
