<svg width="100" height="94" viewBox="0 0 100 94" fill="none" xmlns="http://www.w3.org/2000/svg">
<path d="M97.3031 45.7134H92.576C91.7328 20.8147 71.3513 0.748047 46.3476 0.748047C21.3439 0.748047 0.0175781 21.5495 0.0175781 47.078C0.0175781 72.6066 20.819 93.4081 46.3476 93.4081C61.3721 93.4081 75.5536 86.0532 84.273 73.6563C85.3227 72.1867 84.9028 70.2938 83.5382 69.2441C82.0686 68.1944 80.0707 68.6143 79.126 69.9789C71.5612 80.6962 59.2693 86.998 46.3476 86.998C24.2865 86.998 6.42427 69.0342 6.42427 47.0747C6.42427 25.1151 24.3915 7.15812 46.3476 7.15812C68.3037 7.15812 85.4277 24.2821 86.1659 45.7134H81.5437C79.5459 45.7134 78.3912 47.8162 79.3393 49.4958L87.219 62.7325C88.1638 64.412 90.5815 64.412 91.5263 62.7325L99.4059 49.4958C100.456 47.8162 99.301 45.7134 97.3031 45.7134Z" fill="#D9D9D9"/>
<path d="M37.5507 20.9434H34.9095C33.7006 20.9434 32.7085 21.9355 32.7085 23.1444V26.0057H27.0941C23.7926 26.0057 21.1514 28.647 21.1514 31.9485V64.4154C21.1514 67.7169 23.7926 70.3582 27.0941 70.3582H65.2837C68.5853 70.3582 71.2265 67.7169 71.2265 64.4154V31.9485C71.2265 28.647 68.5853 26.0057 65.2837 26.0057H59.6694V23.1444C59.6694 21.9355 58.6772 20.9434 57.4684 20.9434H54.8271C53.6183 20.9434 52.6261 21.9355 52.6261 23.1444V26.0057H39.7484V23.1444C39.7484 21.9321 38.7562 20.9434 37.5474 20.9434H37.5507ZM67.1563 39.1036V64.4154C67.1563 65.4076 66.3876 66.1762 65.3955 66.1762H27.2059C26.2137 66.1762 25.4451 65.4076 25.4451 64.4154V39.1036H67.1563Z" fill="#D9D9D9"/>
<path d="M56.0427 50.8774H61.7654C62.5341 50.8774 63.1978 50.2171 63.1978 49.4451V45.1514C63.1978 44.3827 62.5374 43.719 61.7654 43.719H56.0427C55.274 43.719 54.6104 44.3793 54.6104 45.1514V49.4451C54.6104 50.3255 55.2707 50.8774 56.0427 50.8774Z" fill="#E52629"/>
<path d="M43.3845 50.8774H49.1072C49.8759 50.8774 50.5396 50.2171 50.5396 49.4451V45.1514C50.5396 44.3827 49.8792 43.719 49.1072 43.719H43.3845C42.6158 43.719 41.9521 44.3793 41.9521 45.1514V49.4451C41.9521 50.3255 42.6125 50.8774 43.3845 50.8774Z" fill="#E52629"/>
<path d="M30.7273 50.8774H36.45C37.2186 50.8774 37.8823 50.2171 37.8823 49.4451V45.1514C37.8823 44.3827 37.222 43.719 36.45 43.719H30.7273C29.9586 43.719 29.2949 44.3793 29.2949 45.1514V49.4451C29.4033 50.3255 29.9552 50.8774 30.7273 50.8774Z" fill="#E52629"/>
<path d="M56.0427 62.2143H61.7654C62.5341 62.2143 63.1978 61.554 63.1978 60.782V56.4883C63.1978 55.7196 62.5374 55.0559 61.7654 55.0559H56.0427C55.274 55.0559 54.6104 55.7162 54.6104 56.4883V60.782C54.6104 61.6624 55.2707 62.2143 56.0427 62.2143Z" fill="#E52629"/>
<path d="M43.3845 62.2143H49.1072C49.8759 62.2143 50.5396 61.554 50.5396 60.782V56.4883C50.5396 55.7196 49.8792 55.0559 49.1072 55.0559H43.3845C42.6158 55.0559 41.9521 55.7162 41.9521 56.4883V60.782C41.9521 61.6624 42.6125 62.2143 43.3845 62.2143Z" fill="#E52629"/>
<path d="M30.7273 62.2143H36.45C37.2186 62.2143 37.8823 61.554 37.8823 60.782V56.4883C37.8823 55.7196 37.222 55.0559 36.45 55.0559H30.7273C29.9586 55.0559 29.2949 55.7162 29.2949 56.4883V60.782C29.4033 61.6624 29.9552 62.2143 30.7273 62.2143Z" fill="#E52629"/>
</svg>
