<svg width="15" height="14" viewBox="0 0 15 14" fill="none" xmlns="http://www.w3.org/2000/svg">
<path d="M2.17236 12.4541H3.24111L10.5724 5.12285L9.50361 4.0541L2.17236 11.3854V12.4541ZM0.672363 13.9541V10.7666L10.5724 0.885352C10.7224 0.747852 10.888 0.641602 11.0692 0.566602C11.2505 0.491602 11.4411 0.454102 11.6411 0.454102C11.8411 0.454102 12.0349 0.491602 12.2224 0.566602C12.4099 0.641602 12.5724 0.754102 12.7099 0.904102L13.7411 1.9541C13.8911 2.0916 14.0005 2.2541 14.0692 2.4416C14.138 2.6291 14.1724 2.8166 14.1724 3.0041C14.1724 3.2041 14.138 3.39473 14.0692 3.57598C14.0005 3.75723 13.8911 3.92285 13.7411 4.07285L3.85986 13.9541H0.672363ZM10.0286 4.59785L9.50361 4.0541L10.5724 5.12285L10.0286 4.59785Z" fill="#E52629"/>
</svg>
