<svg width="89" height="94" viewBox="0 0 89 94" fill="none" xmlns="http://www.w3.org/2000/svg">
<path d="M72.0521 37.795C70.3862 35.3424 67.6262 33.8773 64.6696 33.8773H58.5347C55.5781 33.8773 52.8182 35.3424 51.1522 37.795L44.5919 47.4583L38.0316 37.795C36.3656 35.3424 33.6056 33.8773 30.649 33.8773H24.5142C21.5576 33.8773 18.7976 35.3424 17.1316 37.795L7.54681 51.911C6.40635 53.588 6.83894 55.8754 8.5085 57.0209C9.13772 57.4518 9.85631 57.6601 10.5678 57.6601C11.7368 57.6601 12.888 57.0963 13.5959 56.055L18.4902 48.8444V85.7556C18.4902 87.587 19.7379 89.2819 21.5361 89.5764C23.8278 89.9499 25.8084 88.1831 25.8084 85.9496V63.9443C25.8084 63.4918 26.173 63.1255 26.6199 63.1255H28.5362C28.9866 63.1255 29.3477 63.4918 29.3477 63.9443V85.7556C29.3477 87.587 30.5954 89.2819 32.3937 89.5764C34.6853 89.9499 36.6695 88.1831 36.6695 85.9496V48.8444L41.5638 56.0514C42.2466 57.0568 43.3764 57.6565 44.5883 57.6565C45.8003 57.6565 46.93 57.0568 47.6128 56.0514L53.526 47.3433L48.0168 64.1741C47.4663 65.8511 48.7104 67.5783 50.4693 67.5783H52.6501L51.7671 85.77C51.667 87.7989 53.2257 89.5225 55.2457 89.6195C55.3064 89.6195 55.3672 89.6231 55.428 89.6231C57.3657 89.6231 58.9852 88.0933 59.0817 86.1255L59.9648 67.9625C59.9755 67.7435 60.1543 67.5747 60.3723 67.5747H62.8356C63.0537 67.5747 63.2324 67.7471 63.2431 67.9625L64.1155 85.928C64.2048 87.7558 65.5312 89.3933 67.3438 89.5979C69.6533 89.8601 71.5445 87.9964 71.4372 85.7664L70.5542 67.5747H72.735C74.4939 67.5747 75.7381 65.8475 75.1875 64.1705L69.6819 47.3433L75.5951 56.0514C76.7319 57.7284 79.0093 58.1593 80.6788 57.0173C82.3484 55.8718 82.781 53.5844 81.6405 51.9074L72.0557 37.7914L72.0521 37.795Z" fill="#D9D9D9"/>
<path d="M27.5817 31.8052C32.0756 31.8052 35.7186 28.146 35.7186 23.6322C35.7186 19.1184 32.0756 15.4592 27.5817 15.4592C23.0878 15.4592 19.4448 19.1184 19.4448 23.6322C19.4448 28.146 23.0878 31.8052 27.5817 31.8052Z" fill="#D9D9D9"/>
<path d="M61.6022 31.8052C66.0961 31.8052 69.7391 28.146 69.7391 23.6322C69.7391 19.1184 66.0961 15.4592 61.6022 15.4592C57.1084 15.4592 53.4653 19.1184 53.4653 23.6322C53.4653 28.146 57.1084 31.8052 61.6022 31.8052Z" fill="#D9D9D9"/>
<path d="M42.7352 56.6297C46.8394 56.6297 50.1642 53.2901 50.1642 49.1677C50.1642 45.0453 46.8394 41.7057 42.7352 41.7057C38.631 41.7057 35.3062 45.0453 35.3062 49.1677C35.3062 53.2901 38.631 56.6297 42.7352 56.6297Z" fill="#E52629"/>
<path d="M60.6106 68.803L51.6836 60.6731C50.1784 59.3265 48.2264 58.5688 46.2137 58.5688H40.0109C38.5058 58.5688 37.0221 58.3425 35.5778 57.8937L29.6002 56.0156C24.4878 53.8961 21.1535 53.712 20.4776 56.0156C19.4801 59.415 21.9389 60.6239 28.3597 62.0412L33.7688 63.7361C33.994 63.8187 34.2156 63.8582 34.4409 63.9193V90.345C34.4409 92.0399 35.803 93.4081 37.4904 93.4081C39.1779 93.4081 40.54 92.0399 40.54 90.345V78.1107C40.54 77.6618 40.9046 77.2955 41.3515 77.2955H44.1187C44.5655 77.2955 44.9302 77.6618 44.9302 78.1107V90.345C44.9302 92.0399 46.2923 93.4081 47.9798 93.4081C49.6672 93.4081 51.0293 92.0399 51.0293 90.345V68.372L56.4992 73.3563C57.0891 73.8877 57.822 74.1319 58.5513 74.1319C59.3843 74.1319 60.1994 73.8051 60.8072 73.13C61.9476 71.884 61.844 69.9449 60.6034 68.7994L60.6106 68.803Z" fill="#E52629"/>
<path d="M2.79066 29.3107C2.48421 29.3107 2.1748 29.233 1.88621 29.0746C0.978781 28.5726 0.651513 27.4251 1.15134 26.5136C9.88344 10.6216 26.5354 0.748047 44.6036 0.748047C62.6717 0.748047 79.291 10.6216 88.029 26.5166C88.5289 27.4281 88.1986 28.5726 87.2942 29.0776C86.3867 29.5827 85.2473 29.248 84.7445 28.3395C76.6699 13.6428 61.2883 4.51636 44.6036 4.51636C27.9189 4.51636 12.5075 13.6458 4.43294 28.3395C4.0908 28.9611 3.45114 29.3137 2.79066 29.3137V29.3107Z" fill="#E52629"/>
</svg>
