<svg width="11" height="17" viewBox="0 0 11 17" fill="none" xmlns="http://www.w3.org/2000/svg">
<path d="M10.4212 11.7011C10.4212 13.0733 9.93963 14.241 8.97643 15.2042C8.01324 16.1674 6.84553 16.649 5.47331 16.649C4.10108 16.649 2.93338 16.1674 1.97018 15.2042C1.00699 14.241 0.525391 13.0733 0.525391 11.7011V4.37817C0.525391 3.38859 0.871745 2.54744 1.56445 1.85474C2.25716 1.16203 3.09831 0.815674 4.08789 0.815674C5.07747 0.815674 5.91862 1.16203 6.61133 1.85474C7.30404 2.54744 7.65039 3.38859 7.65039 4.37817V11.3053C7.65039 11.9122 7.43928 12.4268 7.01706 12.849C6.59483 13.2712 6.08025 13.4823 5.47331 13.4823C4.86636 13.4823 4.35178 13.2712 3.92956 12.849C3.50734 12.4268 3.29622 11.9122 3.29622 11.3053V3.98234H4.87956V11.3053C4.87956 11.4768 4.93563 11.6186 5.04779 11.7308C5.15994 11.8429 5.30178 11.899 5.47331 11.899C5.64483 11.899 5.78668 11.8429 5.89883 11.7308C6.01098 11.6186 6.06706 11.4768 6.06706 11.3053V4.37817C6.05386 3.82401 5.85924 3.3556 5.4832 2.97297C5.10716 2.59033 4.64206 2.39901 4.08789 2.39901C3.53372 2.39901 3.06532 2.59033 2.68268 2.97297C2.30004 3.3556 2.10872 3.82401 2.10872 4.37817V11.7011C2.09553 12.6379 2.41879 13.4329 3.07852 14.086C3.73824 14.7391 4.5365 15.0657 5.47331 15.0657C6.39692 15.0657 7.18199 14.7391 7.82852 14.086C8.47504 13.4329 8.8115 12.6379 8.83789 11.7011V3.98234H10.4212V11.7011Z" fill="#E52629"/>
</svg>
