<svg width="84" height="67" viewBox="0 0 84 67" fill="none" xmlns="http://www.w3.org/2000/svg">
<path d="M76.7669 26.7271H66.8757C66.837 23.8091 66.0659 17.655 57.2287 17.655C48.3915 17.655 47.6204 23.8121 47.54 26.7271H42.8386V57.9914C42.8386 60.5018 41.7845 62.7327 40.1201 64.3508C40.7692 65.6863 42.1478 66.6203 43.7288 66.6203C45.7565 66.6203 47.4179 65.1211 47.7008 63.2175H66.7149C67.0008 65.1211 68.7009 66.6203 70.6869 66.6203C72.6729 66.6203 74.376 65.1211 74.7005 63.2175H76.7669C80.4977 63.2175 83.5377 60.1806 83.5377 56.4536V33.4909C83.5377 29.7253 80.4977 26.7271 76.7669 26.7271ZM57.2287 22.4766C61.0816 22.4766 61.9718 23.6099 62.0939 26.7271H52.3635C52.4439 23.6099 53.3758 22.4766 57.2257 22.4766H57.2287ZM53.4979 55.24C53.4979 56.171 52.7684 56.9414 51.8365 56.9414C50.9045 56.9414 50.1334 56.171 50.1334 55.24V34.6658C50.1334 33.7349 50.9045 33.0061 51.8365 33.0061C52.7684 33.0061 53.4979 33.7349 53.4979 34.6658V55.24ZM64.2823 55.24C64.2823 56.171 63.5529 56.9414 62.6209 56.9414C61.689 56.9414 60.9178 56.171 60.9178 55.24V34.6658C60.9178 33.7349 61.689 33.0061 62.6209 33.0061C63.5529 33.0061 64.2823 33.7349 64.2823 34.6658V55.24ZM75.0638 55.24C75.0638 56.171 74.2926 56.9414 73.3607 56.9414C72.4287 56.9414 71.6992 56.171 71.6992 55.24V34.6658C71.6992 33.7349 72.4704 33.0061 73.3607 33.0061C74.2509 33.0061 75.0638 33.7349 75.0638 34.6658V55.24Z" fill="#D9D9D9"/>
<path d="M0.463867 28.1489V57.9915C0.463867 60.6209 2.59574 62.7506 5.22783 62.7506H6.80887V64.9606C6.80887 65.8856 7.5592 66.6352 8.48817 66.6352H10.6409C11.5669 66.6352 12.3172 65.8856 12.3172 64.9606V62.7506H26.9098V64.9606C26.9098 65.8856 27.6601 66.6352 28.5891 66.6352H30.7418C31.6678 66.6352 32.4182 65.8856 32.4182 64.9606V62.7506H33.9992C36.6313 62.7506 38.7632 60.6209 38.7632 57.9915V28.1489C33.4752 30.4868 26.8652 31.861 19.612 31.861C12.3589 31.861 5.75187 30.4868 0.463867 28.1489ZM29.664 54.1872H9.56304C8.46733 54.1872 7.57706 53.3008 7.57706 52.2032C7.57706 51.1056 8.46435 50.2193 9.56304 50.2193H29.664C30.7597 50.2193 31.65 51.1056 31.65 52.2032C31.65 53.3008 30.7627 54.1872 29.664 54.1872ZM31.65 41.4625C31.65 42.5571 30.7627 43.4465 29.664 43.4465H9.56304C8.46733 43.4465 7.57706 42.5601 7.57706 41.4625C7.57706 40.3649 8.46435 39.4786 9.56304 39.4786H29.664C30.7597 39.4786 31.65 40.3649 31.65 41.4625Z" fill="#E52629"/>
<path d="M33.9992 16.7093H28.1812V3.65447C28.1812 1.95607 26.7997 0.575928 25.1025 0.575928H14.1275C12.4274 0.575928 11.0458 1.95607 11.0458 3.65447V16.7093H5.22783C2.59574 16.7093 0.463867 18.839 0.463867 21.4684V23.6843C5.48687 26.2751 12.2696 27.8962 19.615 27.8962C26.9604 27.8962 33.7431 26.2751 38.7661 23.6873V21.4714C38.7661 18.842 36.6343 16.7123 34.0022 16.7123L33.9992 16.7093ZM15.0148 16.7093V7.61643H24.2093V16.7093H15.0148Z" fill="#E52629"/>
</svg>
