<svg width="81" height="86" viewBox="0 0 81 86" fill="none" xmlns="http://www.w3.org/2000/svg">
<path d="M41.4534 7.07037V2.95797C41.4534 1.25943 39.6416 0.276221 38.191 1.07986L26.7743 7.78275C25.3237 8.5864 25.3237 10.6411 26.7743 11.4477L38.191 18.2389C39.6416 19.1338 41.4534 18.0593 41.4534 16.3608V12.428C59.938 13.052 74.7095 27.9797 74.7095 46.2986C74.7095 64.6175 59.2157 80.2605 40.2744 80.2605C21.3331 80.2605 5.84222 64.9825 5.84222 46.3045C5.84222 35.2213 11.37 24.8564 20.5213 18.5097C21.7898 17.6148 22.0614 16.0076 21.154 14.7565C20.2467 13.5054 18.617 13.2375 17.3485 14.1324C6.74959 21.4594 0.314453 33.5228 0.314453 46.3045C0.314453 68.0205 18.2558 85.7182 40.2774 85.7182C62.2989 85.7182 80.2403 68.0234 80.2403 46.3045C80.2403 24.5856 62.9287 7.69739 41.4534 7.07037Z" fill="#D9D9D9"/>
<path d="M23.6769 21.0702C23.6769 20.3639 23.1 19.7891 22.3912 19.7891H22.3502C21.641 19.7891 21.0645 20.3639 21.0645 21.0702V22.5568H23.6769V21.0702Z" fill="#E52629"/>
<path d="M60.1925 21.0702C60.1925 20.3639 59.6156 19.7891 58.9068 19.7891H58.8658C58.1566 19.7891 57.5801 20.3639 57.5801 21.0702V22.5568H60.1925V21.0702Z" fill="#E52629"/>
<path d="M25.0898 24.5887C25.0898 23.0667 23.847 21.8284 22.3195 21.8284H22.241C20.7135 21.8284 19.4707 23.0667 19.4707 24.5887V24.8822H25.0898V24.5887Z" fill="#E52629"/>
<path d="M26.6771 27.1963H18.3525V29.0827H26.6771V27.1963Z" fill="#E52629"/>
<path d="M61.6956 24.5887C61.6956 23.0667 60.4529 21.8284 58.9254 21.8284H58.8464C57.3189 21.8284 56.0762 23.0667 56.0762 24.5887V24.8822H61.6953V24.5887H61.6956Z" fill="#E52629"/>
<path d="M23.3402 39.0898H21.4648V51.2301L23.2741 50.3056L23.3402 39.0898Z" fill="#E52629"/>
<path d="M59.7012 51.2301V39.0898H57.8262L57.8923 50.3056L59.7012 51.2301Z" fill="#E52629"/>
<path d="M55.8291 31.9622L55.7969 35.5657L57.1236 36.7983H60.4697L61.7964 35.5657L61.7635 31.9622H55.8291Z" fill="#E52629"/>
<path d="M62.8128 27.1963H54.4883V29.0827H62.8128V27.1963Z" fill="#E52629"/>
<path d="M19.4037 31.9622L19.3711 35.5657L20.6975 36.7983H24.0436L25.3703 35.5657L25.3381 31.9622H19.4037Z" fill="#E52629"/>
<path d="M15.8503 69.8502C15.8503 69.3881 16.1347 68.9732 16.5669 68.8049L26.5271 64.9327C26.8739 64.7979 27.2658 64.8427 27.5734 65.0532C27.8806 65.2633 28.0636 65.6116 28.062 65.983L27.9763 84.5962H39.6434V62.1687L31.2493 65.5183C30.6721 65.7478 30.0166 65.4691 29.7856 64.8939C29.5546 64.3188 29.8349 63.666 30.4122 63.4354L39.6434 59.7523V57.2773L13.1348 67.5827L13.17 84.5962H15.8506V69.8502H15.8503Z" fill="#E52629"/>
<path d="M67.4162 72.185L41.8945 62.0476V84.5959H67.4421L67.4162 72.185Z" fill="#E52629"/>
<path d="M39.6434 54.8684V46.771L13.1133 57.085L13.1297 65.1761L39.6434 54.8684Z" fill="#E52629"/>
<path d="M41.8945 59.6322L67.4112 69.7676L67.4065 67.4897L41.8945 57.3567V59.6322Z" fill="#E52629"/>
<path d="M41.8945 54.9413L67.4015 65.0726L67.3847 56.9752L41.8945 46.8506V54.9413Z" fill="#E52629"/>
</svg>
