<svg width="77" height="94" viewBox="0 0 77 94" fill="none" xmlns="http://www.w3.org/2000/svg">
<path d="M73.4588 18.1954C71.3429 17.6682 69.1845 18.9526 68.6538 21.0755L67.1536 27.0693C66.3186 30.4059 63.4349 32.8332 59.978 33.1056C56.737 33.3639 53.1138 33.4948 49.2076 33.4948C48.1815 33.4948 47.1377 33.5302 46.1081 33.5868C37.9878 34.0539 31.1023 39.6018 28.9723 47.3895L26.4071 56.7765C25.8303 58.8853 27.0758 61.0649 29.1846 61.6416C29.5349 61.7371 29.8852 61.7831 30.2284 61.7831C31.9692 61.7831 33.565 60.6261 34.0462 58.8641L36.6114 49.4771C37.1528 47.4957 38.2531 45.7867 39.6932 44.4457L39.5765 59.1365L35.6455 88.4191C35.3235 90.8286 37.0148 93.0436 39.4243 93.3691C39.6224 93.3939 39.8206 93.408 40.0152 93.408C42.1841 93.408 44.0736 91.8017 44.3743 89.5938L48.1992 61.1109H50.2195L54.0444 89.5938C54.3416 91.8052 56.231 93.4116 58.4035 93.408C58.5981 93.408 58.7962 93.3939 58.9944 93.3691C61.4039 93.0471 63.0952 90.8286 62.7732 88.4191L58.8422 59.1365L58.7007 41.1339C59.3447 41.095 59.9922 41.0525 60.6114 41.0065C67.465 40.4652 73.1863 35.6354 74.8457 28.9977L76.346 23.0039C76.8767 20.8809 75.5888 18.7297 73.4658 18.1989L73.4588 18.1954Z" fill="#D9D9D9"/>
<path d="M55.4323 28.5259C58.8716 25.0867 58.8716 19.5106 55.4323 16.0713C51.9931 12.6321 46.417 12.6321 42.9778 16.0713C39.5385 19.5106 39.5385 25.0867 42.9778 28.5259C46.417 31.9651 51.9931 31.9651 55.4323 28.5259Z" fill="#D9D9D9"/>
<path d="M55.6153 11.3454C56.5635 11.8938 57.7736 11.5683 58.3185 10.6201L60.4768 6.88368C61.0253 5.93897 60.7033 4.73242 59.7515 4.17692C58.8032 3.62849 57.5932 3.95401 57.0447 4.90226L54.8864 8.63865C54.4264 9.43122 54.5821 10.4113 55.2013 11.0305C55.3216 11.1508 55.4596 11.257 55.6117 11.3454H55.6153Z" fill="#D9D9D9"/>
<path d="M49.2041 9.62924C50.2974 9.62924 51.1855 8.74114 51.1855 7.64782V3.33115C51.1855 2.23783 50.3009 1.34973 49.2041 1.34973C48.1108 1.34973 47.2227 2.23783 47.2227 3.33115V7.64428C47.2227 8.19271 47.4456 8.68453 47.8029 9.04543C48.1603 9.40279 48.6556 9.6257 49.2041 9.6257V9.62924Z" fill="#D9D9D9"/>
<path d="M40.0858 10.62C40.1743 10.7756 40.2804 10.9101 40.4007 11.0304C41.0199 11.6496 41.9965 11.8017 42.7926 11.3418C43.7408 10.7969 44.0628 9.58325 43.5179 8.63854L41.3596 4.90215C40.8147 3.95036 39.6011 3.62838 38.6563 4.1768C37.7081 4.7217 37.3826 5.93532 37.931 6.88357L40.0893 10.62H40.0858Z" fill="#D9D9D9"/>
<path d="M32.4117 30.8836L29.344 24.1927C31.0919 21.2206 31.9022 17.6364 31.2971 13.8186C30.264 7.28697 25.0273 1.99729 18.4993 0.953501C7.90574 -0.737784 -1.10973 8.25999 0.553252 18.8464C1.57935 25.3851 6.86196 30.6394 13.3971 31.6868C17.2255 32.3024 20.8204 31.4886 23.7996 29.7372L30.4869 32.8048C31.7111 33.3674 32.9707 32.1043 32.4117 30.88V30.8836ZM7.6616 19.0587C6.14015 19.0587 4.9053 17.8239 4.9053 16.3024C4.9053 14.781 6.14015 13.5461 7.6616 13.5461C9.18305 13.5461 10.4179 14.781 10.4179 16.3024C10.4179 17.8239 9.18305 19.0587 7.6616 19.0587ZM15.927 19.0587C14.4055 19.0587 13.1707 17.8239 13.1707 16.3024C13.1707 14.781 14.4055 13.5461 15.927 13.5461C17.4484 13.5461 18.6833 14.781 18.6833 16.3024C18.6833 17.8239 17.4484 19.0587 15.927 19.0587ZM24.1923 19.0587C22.6673 19.0587 21.436 17.8239 21.436 16.3024C21.436 14.781 22.6709 13.5461 24.1923 13.5461C25.7138 13.5461 26.9486 14.781 26.9486 16.3024C26.9486 17.8239 25.7138 19.0587 24.1923 19.0587Z" fill="#E52629"/>
</svg>
