<svg width="27" height="27" viewBox="0 0 27 27" fill="none" xmlns="http://www.w3.org/2000/svg">
<path d="M12.3705 19.9058H14.9346V12.2134H12.3705V19.9058ZM13.6525 9.64935C14.0158 9.64935 14.3203 9.52648 14.566 9.28076C14.8117 9.03503 14.9346 8.73054 14.9346 8.3673C14.9346 8.00405 14.8117 7.69956 14.566 7.45383C14.3203 7.20811 14.0158 7.08524 13.6525 7.08524C13.2893 7.08524 12.9848 7.20811 12.7391 7.45383C12.4934 7.69956 12.3705 8.00405 12.3705 8.3673C12.3705 8.73054 12.4934 9.03503 12.7391 9.28076C12.9848 9.52648 13.2893 9.64935 13.6525 9.64935ZM13.6525 26.316C11.879 26.316 10.2124 25.9795 8.65254 25.3064C7.09272 24.6333 5.73588 23.7199 4.58203 22.566C3.42818 21.4122 2.51472 20.0553 1.84165 18.4955C1.16857 16.9357 0.832031 15.269 0.832031 13.4955C0.832031 11.722 1.16857 10.0553 1.84165 8.4955C2.51472 6.93567 3.42818 5.57883 4.58203 4.42499C5.73588 3.27114 7.09272 2.35768 8.65254 1.6846C10.2124 1.01153 11.879 0.674988 13.6525 0.674988C15.426 0.674988 17.0927 1.01153 18.6525 1.6846C20.2124 2.35768 21.5692 3.27114 22.7231 4.42499C23.8769 5.57883 24.7904 6.93567 25.4634 8.4955C26.1365 10.0553 26.4731 11.722 26.4731 13.4955C26.4731 15.269 26.1365 16.9357 25.4634 18.4955C24.7904 20.0553 23.8769 21.4122 22.7231 22.566C21.5692 23.7199 20.2124 24.6333 18.6525 25.3064C17.0927 25.9795 15.426 26.316 13.6525 26.316ZM13.6525 23.7519C16.5158 23.7519 18.941 22.7583 20.9282 20.7711C22.9154 18.784 23.909 16.3587 23.909 13.4955C23.909 10.6323 22.9154 8.20704 20.9282 6.21986C18.941 4.23268 16.5158 3.23909 13.6525 3.23909C10.7893 3.23909 8.36408 4.23268 6.3769 6.21986C4.38972 8.20704 3.39613 10.6323 3.39613 13.4955C3.39613 16.3587 4.38972 18.784 6.3769 20.7711C8.36408 22.7583 10.7893 23.7519 13.6525 23.7519Z" fill="white"/>
</svg>
