<svg width="123" height="123" viewBox="0 0 123 123" fill="none" xmlns="http://www.w3.org/2000/svg">
<circle cx="61.5" cy="61.5" r="61.5" fill="#E52629"/>
<path d="M30.0073 66.2602C29.9694 66.9882 30.0802 67.7163 30.3331 68.4C30.586 69.0837 30.9756 69.7087 31.4781 70.2369C31.9663 70.7573 32.555 71.1734 33.2085 71.4599C33.862 71.7464 34.5669 71.8974 35.2804 71.9038L50.5444 71.9038C50.6155 71.9061 50.6851 71.925 50.7475 71.9591C50.81 71.9931 50.8635 72.0414 50.9039 72.0999C50.9689 72.1902 51.0107 72.2949 51.0259 72.4051C51.0411 72.5152 51.0292 72.6274 50.9911 72.7318L46.949 85.3265C46.1646 87.767 44.8572 91.8417 48.4308 94.7616C50.0759 96.1017 52.8541 96.7227 54.7717 95.2192C56.395 93.9336 56.7872 91.9943 57.1359 90.2729C57.2548 89.5889 57.426 88.9151 57.6479 88.2573C58.6939 85.4137 61.276 83.5288 63.7601 81.7094C64.185 81.4043 64.599 81.0992 65.013 80.7833C68.8811 77.7644 72.9629 75.0298 77.2263 72.6011L77.2263 75.3902C77.2281 75.9676 77.4582 76.5209 77.8665 76.9291C78.2747 77.3374 78.828 77.5675 79.4053 77.5692L89.821 77.5692C90.3989 77.5692 90.9531 77.3397 91.3618 76.931C91.7704 76.5224 92 75.9682 92 75.3902L92 36.179C92 35.6011 91.7704 35.0469 91.3618 34.6382C90.9531 34.2296 90.3989 34 89.821 34L79.4053 34C78.828 34.0017 78.2747 34.2319 77.8665 34.6401C77.4582 35.0484 77.2281 35.6016 77.2263 36.179L77.2263 38.9137L69.3601 37.0288C66.085 36.2437 62.7363 35.8055 59.3694 35.7214C57.5499 35.6669 55.676 35.6452 53.7693 35.6452C50.8059 35.6452 47.7553 35.6996 44.6502 35.8195C43.9491 35.8126 43.2539 35.9493 42.6075 36.2209C41.9611 36.4926 41.3771 36.8936 40.8914 37.3993C40.3017 38.0488 39.8738 38.8285 39.6428 39.6749C39.4118 40.5213 39.3842 41.4103 39.5622 42.2693C39.722 43.0346 40.0535 43.7537 40.5319 44.3721C39.4621 44.553 38.4819 45.0814 37.7427 45.8756C37.153 46.5251 36.7252 47.3049 36.4942 48.1512C36.2632 48.9976 36.2355 49.8866 36.4135 50.7457C36.5711 51.5117 36.9029 52.2312 37.3832 52.8484C36.3135 53.0293 35.3332 53.5578 34.5941 54.3519C34.0043 55.0015 33.5765 55.7812 33.3455 56.6276C33.1145 57.4739 33.0869 58.3629 33.2649 59.222C33.4223 59.9942 33.7664 60.7162 34.2672 61.3248C33.1848 61.4959 32.1911 62.0253 31.4454 62.8283C30.5853 63.7726 30.0773 64.9848 30.0073 66.2602ZM79.4053 36.179L89.821 36.179L89.821 75.3902L79.4053 75.3902L79.4053 36.179ZM33.0361 64.31C33.2897 64.0335 33.5977 63.8124 33.9408 63.6605C34.2839 63.5087 34.6547 63.4293 35.0299 63.4275L38.1785 63.4275C38.2003 63.4275 38.2112 63.4166 38.233 63.4166C38.2766 63.4166 38.3202 63.4275 38.3637 63.4275L42.1116 63.4275C42.4006 63.4275 42.6777 63.3127 42.882 63.1084C43.0864 62.9041 43.2011 62.6269 43.2011 62.338C43.2011 62.049 43.0864 61.7719 42.882 61.5676C42.6777 61.3633 42.4006 61.2485 42.1116 61.2485L38.3637 61.2485C37.6749 61.203 37.0179 60.9417 36.4859 60.5016C35.954 60.0616 35.5741 59.4652 35.4003 58.7971C35.288 58.2763 35.3006 57.7363 35.4369 57.2213C35.5733 56.7062 35.8295 56.2307 36.1847 55.8337C36.4384 55.5572 36.7464 55.3361 37.0895 55.1842C37.4326 55.0323 37.8033 54.953 38.1785 54.9512L45.2603 54.9512C45.5493 54.9512 45.8264 54.8364 46.0307 54.632C46.235 54.4277 46.3498 54.1506 46.3498 53.8617C46.3498 53.5727 46.235 53.2956 46.0307 53.0913C45.8264 52.8869 45.5493 52.7721 45.2603 52.7721L41.3272 52.7721C40.6607 52.7208 40.029 52.4538 39.5277 52.0115C39.0264 51.5692 38.6829 50.9757 38.549 50.3208C38.4367 49.7999 38.4493 49.26 38.5856 48.7449C38.7219 48.2299 38.9782 47.7544 39.3334 47.3573C39.5851 47.0776 39.8924 46.8536 40.2358 46.6997C40.5792 46.5459 40.9509 46.4656 41.3272 46.4639L48.409 46.4639C48.6979 46.4639 48.975 46.3491 49.1794 46.1448C49.3837 45.9405 49.4985 45.6634 49.4985 45.3744C49.4985 45.0855 49.3837 44.8083 49.1794 44.604C48.975 44.3997 48.6979 44.2849 48.409 44.2849L44.4759 44.2849C43.8103 44.236 43.1788 43.9711 42.6774 43.5307C42.176 43.0902 41.832 42.4982 41.6976 41.8444C41.5854 41.3236 41.5979 40.7836 41.7343 40.2686C41.8706 39.7535 42.1268 39.2781 42.4821 38.881C42.7766 38.5891 43.1275 38.3603 43.5133 38.2085C43.8992 38.0568 44.312 37.9853 44.7264 37.9985C49.7926 37.8024 54.7063 37.7697 59.3149 37.8895C62.5309 37.9777 65.7292 38.3976 68.8589 39.1425L77.2263 41.1472L77.2263 70.1388C72.4762 72.7287 67.95 75.7097 63.6947 79.051C63.3025 79.3451 62.8885 79.6502 62.4745 79.9444C59.8488 81.8728 56.8744 84.0409 55.5997 87.5055C55.335 88.2683 55.1346 89.0518 55.0005 89.8479C54.7063 91.3188 54.423 92.7133 53.4207 93.5087C52.4401 94.2822 50.8059 93.89 49.8035 93.0729C47.7771 91.4059 47.9623 89.3032 49.03 85.9911L53.072 73.3964C53.2124 72.964 53.2481 72.5044 53.1761 72.0555C53.1041 71.6066 52.9266 71.1812 52.658 70.8143C52.4173 70.4781 52.1002 70.204 51.7327 70.0146C51.3651 69.8251 50.9579 69.7258 50.5444 69.7248L35.2804 69.7248C34.8621 69.7187 34.4494 69.6277 34.0674 69.4572C33.6853 69.2868 33.3419 69.0405 33.0579 68.7334C32.7595 68.4214 32.5283 68.0517 32.3784 67.647C32.2285 67.2422 32.1631 66.811 32.1863 66.38C32.2231 65.6128 32.5232 64.8818 33.0361 64.31Z" fill="white"/>
<path d="M84.6176 38.9027C83.4142 38.9027 82.4386 39.8783 82.4386 41.0817C82.4386 42.2852 83.4142 43.2607 84.6176 43.2607C85.8211 43.2607 86.7966 42.2852 86.7966 41.0817C86.7966 39.8783 85.8211 38.9027 84.6176 38.9027Z" fill="white"/>
</svg>
