<svg width="123" height="123" viewBox="0 0 123 123" fill="none" xmlns="http://www.w3.org/2000/svg">
<circle cx="61.5" cy="61.5" r="61.5" fill="#67BB79"/>
<path d="M91.9928 59.8338C92.0306 59.1058 91.9198 58.3777 91.6669 57.694C91.414 57.0103 91.0244 56.3852 90.5219 55.8571C90.0337 55.3367 89.445 54.9206 88.7915 54.6341C88.138 54.3476 87.4331 54.1966 86.7196 54.1902H71.4556C71.3845 54.1879 71.3149 54.169 71.2525 54.1349C71.19 54.1009 71.1365 54.0526 71.0961 53.9941C71.0311 53.9038 70.9893 53.7991 70.9741 53.6889C70.9589 53.5788 70.9708 53.4666 71.0089 53.3621L75.051 40.7675C75.8354 38.327 77.1428 34.2523 73.5692 31.3324C71.9241 29.9923 69.1459 29.3713 67.2283 30.8748C65.605 32.1604 65.2128 34.0997 64.8641 35.8211C64.7452 36.5051 64.574 37.1789 64.3521 37.8367C63.3061 40.6803 60.724 42.5652 58.2399 44.3846C57.815 44.6897 57.401 44.9948 56.987 45.3107C53.1189 48.3296 49.0371 51.0642 44.7737 53.4929V50.7038C44.7719 50.1264 44.5418 49.5731 44.1335 49.1649C43.7253 48.7566 43.172 48.5265 42.5947 48.5247H32.179C31.6011 48.5247 31.0469 48.7543 30.6382 49.163C30.2296 49.5716 30 50.1258 30 50.7038V89.915C30 90.4929 30.2296 91.0471 30.6382 91.4558C31.0469 91.8644 31.6011 92.094 32.179 92.094H42.5947C43.172 92.0923 43.7253 91.8621 44.1335 91.4539C44.5418 91.0456 44.7719 90.4924 44.7737 89.915V87.1803L52.6399 89.0652C55.915 89.8502 59.2637 90.2885 62.6306 90.3726C64.4501 90.427 66.324 90.4488 68.2307 90.4488C71.1941 90.4488 74.2447 90.3944 77.3498 90.2745C78.051 90.2814 78.7461 90.1447 79.3925 89.8731C80.0389 89.6014 80.6229 89.2004 81.1086 88.6947C81.6984 88.0452 82.1262 87.2654 82.3572 86.4191C82.5882 85.5727 82.6158 84.6837 82.4378 83.8247C82.278 83.0593 81.9465 82.3403 81.4681 81.7219C82.5379 81.541 83.5181 81.0126 84.2573 80.2184C84.847 79.5689 85.2748 78.7891 85.5058 77.9427C85.7368 77.0964 85.7645 76.2074 85.5865 75.3483C85.4289 74.5823 85.0971 73.8628 84.6168 73.2456C85.6865 73.0647 86.6668 72.5362 87.4059 71.7421C87.9957 71.0925 88.4235 70.3128 88.6545 69.4664C88.8855 68.62 88.9131 67.7311 88.7351 66.872C88.5777 66.0997 88.2336 65.3778 87.7328 64.7692C88.8152 64.5981 89.8089 64.0687 90.5546 63.2657C91.4147 62.3214 91.9227 61.1092 91.9928 59.8338ZM42.5947 89.915H32.179V50.7038H42.5947V89.915ZM88.9639 61.784C88.7103 62.0605 88.4023 62.2816 88.0592 62.4335C87.7161 62.5853 87.3453 62.6647 86.9701 62.6665H83.8215C83.7997 62.6665 83.7888 62.6774 83.767 62.6774C83.7234 62.6774 83.6798 62.6665 83.6363 62.6665H79.8884C79.5994 62.6665 79.3223 62.7813 79.118 62.9856C78.9137 63.1899 78.7989 63.4671 78.7989 63.756C78.7989 64.045 78.9137 64.3221 79.118 64.5264C79.3223 64.7307 79.5994 64.8455 79.8884 64.8455H83.6363C84.3251 64.891 84.9821 65.1523 85.5141 65.5924C86.046 66.0324 86.4259 66.6288 86.5997 67.2969C86.712 67.8177 86.6994 68.3577 86.5631 68.8727C86.4267 69.3878 86.1705 69.8633 85.8153 70.2603C85.5616 70.5368 85.2536 70.7579 84.9105 70.9098C84.5674 71.0617 84.1967 71.141 83.8215 71.1428H76.7397C76.4507 71.1428 76.1736 71.2576 75.9693 71.4619C75.765 71.6663 75.6502 71.9434 75.6502 72.2323C75.6502 72.5213 75.765 72.7984 75.9693 73.0027C76.1736 73.2071 76.4507 73.3218 76.7397 73.3218H80.6728C81.3393 73.3732 81.971 73.6402 82.4723 74.0825C82.9736 74.5247 83.3171 75.1183 83.451 75.7732C83.5633 76.294 83.5507 76.834 83.4144 77.3491C83.2781 77.8641 83.0218 78.3396 82.6666 78.7367C82.415 79.0164 82.1076 79.2404 81.7642 79.3942C81.4208 79.5481 81.0491 79.6284 80.6728 79.6301H73.591C73.3021 79.6301 73.025 79.7449 72.8206 79.9492C72.6163 80.1535 72.5015 80.4306 72.5015 80.7196C72.5015 81.0085 72.6163 81.2856 72.8206 81.49C73.025 81.6943 73.3021 81.8091 73.591 81.8091H77.5241C78.1898 81.858 78.8212 82.1228 79.3226 82.5633C79.824 83.0038 80.168 83.5958 80.3024 84.2496C80.4146 84.7704 80.4021 85.3104 80.2657 85.8254C80.1294 86.3405 79.8732 86.8159 79.5179 87.213C79.2234 87.5049 78.8725 87.7337 78.4867 87.8855C78.1008 88.0372 77.688 88.1087 77.2736 88.0955C72.2074 88.2916 67.2937 88.3243 62.6851 88.2045C59.4691 88.1163 56.2708 87.6964 53.1411 86.9515L44.7737 84.9468V55.9552C49.5238 53.3653 54.05 50.3843 58.3053 47.043C58.6975 46.7489 59.1115 46.4438 59.5255 46.1496C62.1512 44.2212 65.1256 42.0531 66.4003 38.5885C66.665 37.8257 66.8654 37.0422 66.9995 36.246C67.2937 34.7752 67.577 33.3806 68.5793 32.5853C69.5599 31.8118 71.1941 32.204 72.1965 33.0211C74.2229 34.6881 74.0377 36.7908 72.97 40.1029L68.928 52.6975C68.7876 53.13 68.7519 53.5896 68.8239 54.0385C68.8959 54.4874 69.0734 54.9128 69.342 55.2797C69.5827 55.6159 69.8998 55.89 70.2673 56.0794C70.6349 56.2689 71.0421 56.3682 71.4556 56.3692H86.7196C87.1379 56.3753 87.5506 56.4663 87.9326 56.6368C88.3147 56.8072 88.6581 57.0535 88.9421 57.3606C89.2405 57.6725 89.4717 58.0423 89.6216 58.447C89.7715 58.8518 89.8369 59.283 89.8137 59.7139C89.7769 60.4811 89.4768 61.2122 88.9639 61.784Z" fill="white"/>
<path d="M37.3824 87.1913C38.5858 87.1913 39.5614 86.2157 39.5614 85.0123C39.5614 83.8088 38.5858 82.8333 37.3824 82.8333C36.1789 82.8333 35.2034 83.8088 35.2034 85.0123C35.2034 86.2157 36.1789 87.1913 37.3824 87.1913Z" fill="white"/>
</svg>
