<svg width="22" height="18" viewBox="0 0 22 18" fill="none" xmlns="http://www.w3.org/2000/svg">
<path d="M2.14314 15.4231C1.63797 15.4231 1.21039 15.2481 0.860388 14.8981C0.510388 14.5481 0.335388 14.1205 0.335388 13.6153V2.23085C0.335388 1.72568 0.510388 1.2981 0.860388 0.948096C1.21039 0.598096 1.63797 0.423096 2.14314 0.423096H17.5276C18.0328 0.423096 18.4604 0.598096 18.8104 0.948096C19.1604 1.2981 19.3354 1.72568 19.3354 2.23085V7.5191H1.83539V13.6153C1.83539 13.6923 1.86747 13.7628 1.93164 13.8268C1.99564 13.891 2.06614 13.9231 2.14314 13.9231H11.4314V15.4231H2.14314ZM1.83539 4.3271H17.8354V2.23085C17.8354 2.15385 17.8033 2.08335 17.7391 2.01935C17.6751 1.95518 17.6046 1.9231 17.5276 1.9231H2.14314C2.06614 1.9231 1.99564 1.95518 1.93164 2.01935C1.86747 2.08335 1.83539 2.15385 1.83539 2.23085V4.3271ZM17.0854 17.6731V14.6731H14.0854V13.1731H17.0854V10.1731H18.5854V13.1731H21.5854V14.6731H18.5854V17.6731H17.0854Z" fill="white"/>
</svg>
