<svg width="94" height="83" viewBox="0 0 94 83" fill="none" xmlns="http://www.w3.org/2000/svg">
<path d="M73.4001 67.3493C73.965 66.6551 74.506 65.9322 74.9943 65.2141L69.4934 65.4439L69.3641 65.4678H69.2348C68.7226 65.4678 68.2342 65.3912 67.7459 65.262C62.8626 70.7677 56.2844 74.7318 48.8301 76.3309C49.1652 75.9718 49.4477 75.6367 49.5243 75.4835C49.577 75.4069 49.9073 75.2249 50.1658 75.0957C50.7308 74.7893 51.3484 74.4541 51.6309 74.0137C52.0139 73.3961 53.2251 72.1369 53.7374 71.8784C54.4029 71.5433 58.6207 67.7371 58.8793 67.1195C59.5208 65.6019 60.4209 63.8496 60.9619 63.4379C61.8859 62.691 61.0385 61.3026 60.7034 60.7856L60.6507 60.6802C60.2916 60.0866 57.9026 59.8328 57.5387 59.9094C57.1031 59.8855 55.0731 58.7795 54.9439 58.4444C54.9439 57.7502 52.9666 55.8448 52.4256 55.8448C52.2197 55.8448 50.9893 55.5862 50.343 54.7915C49.5482 53.8387 46.7714 53.1972 45.9719 53.1972C45.1724 53.1972 44.0952 53.044 43.3004 52.6849C42.6062 52.3785 41.4237 52.8142 40.1885 53.3552C39.93 53.4845 39.7241 53.585 39.5996 53.6137C39.1879 53.743 36.8755 53.2547 36.3105 53.0201C36.1573 52.8669 36.0807 51.9381 36.0281 51.5024C35.9754 50.8848 35.9515 50.5257 35.8222 50.3199C35.6451 50.0374 35.128 49.8555 34.0221 49.5969C33.7635 49.5203 33.4045 49.415 33.2273 49.3671C33.28 49.2139 33.4093 48.9315 33.5098 48.7256C33.8689 47.8495 34.0987 47.2606 33.8928 46.8967C33.8162 46.7435 33.6869 46.6382 33.5337 46.6143C32.9927 46.485 32.2746 47.026 31.5038 47.5909C31.1687 47.8207 30.6564 48.2085 30.5032 48.2325C30.0388 48.2325 29.1387 47.8447 28.0376 47.1792C27.396 46.7914 28.1142 44.7327 28.4732 43.7321C28.6504 43.2438 28.7796 42.8847 28.8084 42.6501C28.8323 42.4443 29.9909 42.1091 31.6618 42.1091C32.1262 42.1091 32.7677 41.9799 33.3853 41.9033C33.9503 41.7979 34.5152 41.6974 34.8503 41.6974C35.1089 41.6974 35.5445 42.3677 35.827 42.7507C36.2914 43.3922 36.6217 43.8853 37.1101 43.8039C37.7516 43.6747 37.6989 42.7985 37.675 42.1809C37.6463 41.9751 37.6463 41.7692 37.675 41.6639C37.7277 41.2761 38.599 39.8111 39.2932 39.3994C40.1646 38.8823 41.2992 37.2641 40.988 36.4646C41.012 36.1055 42.477 35.1001 42.9653 34.765C43.1951 34.6118 43.401 34.4825 43.5302 34.3772C43.6834 34.2766 43.8654 34.1713 44.0425 34.0708C44.5548 33.7883 45.2011 33.4532 45.2011 32.577C45.2011 32.06 46.8193 31.8062 47.796 31.677C48.0258 31.6243 48.2317 31.6004 48.4375 31.5716C49.0791 31.4663 49.4142 31.2892 49.5674 31.0067C49.7493 30.6716 49.5913 30.2838 49.3855 29.8242C49.3328 29.6949 49.2849 29.5656 49.2323 29.4124C48.9259 28.6129 49.0791 28.048 49.8211 27.5357C50.1563 27.3059 50.7451 27.2532 51.3867 27.1766C52.0569 27.1 52.799 26.9947 53.4693 26.7122C53.9576 26.5303 54.2401 26.2766 54.3167 25.9654C54.4172 25.5536 54.1635 25.1946 53.905 24.8834C53.8044 24.7541 53.6991 24.6248 53.6464 24.4956C53.2874 23.7726 52.6458 23.2604 52.2341 22.9013C52.0043 22.7194 51.7984 21.7188 51.6452 21.1251C51.5686 20.7373 51.492 20.3782 51.4154 20.1724C51.3149 19.9426 51.1569 19.7846 50.9271 19.684C50.3621 19.5021 49.5147 19.7606 49.0264 20.0192C48.9737 19.8899 48.9498 19.7128 48.9259 19.5548C48.8732 19.1957 48.8253 18.8318 48.6195 18.6547C48.4902 18.5254 48.2077 18.243 47.8487 17.9318C47.3364 17.4674 46.69 16.8785 46.2783 16.4668C46.0198 16.2082 45.766 16.1843 45.6081 16.2082C44.9905 16.2848 44.5021 17.0078 44.0664 17.7498C44.0138 17.8552 43.9659 17.9318 43.9132 17.9796C43.1664 19.1382 43.0371 19.9617 43.6068 20.3734C43.6308 20.3974 43.6834 20.5793 43.5302 20.9671C43.3244 21.5608 42.9126 21.9725 42.6828 21.9725H42.6589C41.9647 21.9198 41.8115 22.8486 41.6296 23.7726C41.553 24.1078 41.4476 24.6488 41.3471 24.8259C41.1652 24.6966 40.988 24.1556 41.012 22.5614V22.3794C41.012 22.1736 40.9354 21.9917 40.8348 21.8911C40.605 21.6852 40.3225 21.7092 40.064 21.7379C39.7049 21.7906 39.5517 21.7906 39.4991 21.6613C39.1113 21.0437 37.2106 20.2968 36.4925 20.0383C36.4685 19.0329 36.4685 17.9557 36.4685 17.8504C36.6983 17.5152 39.6571 15.5092 40.3225 15.2747C41.2753 14.9682 43.6116 13.3692 44.076 13.0628C44.4878 12.7516 44.5404 12.4452 44.5117 12.2393C44.4064 11.4925 43.0706 10.9515 42.4818 10.7456C42.0461 9.74019 41.3519 9.74019 40.5045 9.74019C40.0927 9.76413 39.6283 9.76413 39.0395 9.66359C36.8276 9.30452 34.9796 9.22792 33.4906 9.43378C32.4374 9.58699 31.1782 9.30452 30.1489 9.09865C29.6366 8.99333 29.1962 8.89278 28.8132 8.86885C32.7438 7.35118 36.9856 6.47505 41.4572 6.47505C46.2879 6.47505 50.8888 7.48044 55.0779 9.22792C55.1785 9.61571 55.3077 9.99872 55.4657 10.3578C55.9301 11.3632 56.7009 13.1633 56.7009 14.4751C56.7009 15.7869 56.8541 17.2041 56.7009 17.6158C56.5477 18.0515 59.3485 21.1921 59.99 21.2687C60.6076 21.3453 60.9906 20.9336 61.3784 20.316C61.7662 19.6984 62.3024 19.0042 63.4083 18.1568C64.3323 17.4099 66.5682 17.6397 67.1858 17.7211C68.3444 18.9563 69.3976 20.2681 70.3695 21.6326C70.1636 21.8145 69.9578 21.9917 69.8046 22.1209C69.3162 22.6332 67.8752 24.0503 68.0332 25.1563C68.2151 26.2622 69.3976 27.6027 70.8339 28.3735C72.2462 29.1204 72.4282 30.5615 72.4282 30.82C72.4282 31.0785 74.4581 32.3376 74.4581 32.3376C74.4581 32.3376 73.6107 34.0085 73.175 34.0085C72.7633 34.0085 72.4282 35.7081 72.4282 36.3784C72.4282 37.0486 73.2756 38.2312 74.1517 38.9254C75.0518 39.6196 76.4641 37.7668 76.4641 37.7428C76.5934 38.7961 76.6461 39.9068 76.67 40.984C75.8226 40.9314 74.2523 41.6256 73.7639 42.0373C73.175 42.5496 71.9159 46.6957 71.3222 47.1074C71.1403 47.2367 70.9105 47.8543 70.6807 48.6538C71.0924 48.5006 71.5281 48.3713 71.9925 48.2947L82.1183 46.4419C82.3002 44.9242 82.3768 43.3778 82.3768 41.8075C82.3672 19.2244 64.0164 0.825684 41.4524 0.825684C18.8885 0.825684 0.513672 19.2244 0.513672 41.8219C0.513672 64.4193 18.8885 82.7941 41.4524 82.7941C51.9899 82.7941 61.6034 78.7773 68.8758 72.2183C70.5179 70.7246 72.0356 69.1064 73.4001 67.3541V67.3493ZM42.0461 75.8186C41.8929 76.1298 41.8402 76.6181 41.8402 77.1065C41.7109 77.1065 41.5817 77.1304 41.4524 77.1304C22.0004 77.1304 6.16782 61.2787 6.16782 41.8219C6.16782 32.5339 9.79204 24.0886 15.676 17.7834C15.9345 17.9366 16.217 18.1185 16.5473 18.3483C16.7532 18.5781 16.8537 20.2777 16.7293 22.0539V22.1305L16.7532 22.1832C16.7771 22.2358 18.2421 25.8361 16.8298 28.6943C15.3409 31.8062 15.6233 36.7758 16.3941 37.9056C17.0644 38.8584 20.454 43.2055 20.9424 43.6938C21.3301 44.0816 22.46 47.2462 22.5606 47.6819C22.6611 48.0936 24.873 50.7938 27.1614 50.7172C28.5259 50.6646 30.0914 51.4402 31.0921 51.9524C31.657 52.2349 31.9921 52.4168 32.2507 52.4408C32.3512 52.4408 32.4805 52.6993 32.6337 52.9291C32.9688 53.494 33.4571 54.3462 34.6875 55.0404C35.0466 55.2463 35.3817 55.4282 35.7169 55.6054C36.9521 56.2756 38.623 57.1996 38.7522 57.4869C38.7283 57.5874 38.4697 57.8747 38.2639 58.1045C37.5457 58.9519 36.2866 60.369 36.6457 62.2984C37.134 64.9508 40.8348 68.1154 42.07 68.8862C42.8648 69.3984 42.4818 74.8324 42.0461 75.809V75.8186Z" fill="#D9D9D9"/>
<path d="M79.9925 51.0331C82.1852 45.0917 85.1248 39.3944 89.1512 34.5063C91.8562 31.2172 93.4888 27.0089 93.4888 22.4128C93.4888 11.5785 84.4641 2.86028 73.5341 3.37734C63.7099 3.84174 55.7003 12.0333 55.4321 21.8814C55.3029 26.5924 56.8876 30.93 59.6021 34.3148C63.6142 39.3178 66.6926 45.0151 68.9188 51.0331C69.6848 53.1109 70.3982 55.1265 71.0349 56.9984C72.1504 60.2732 76.7705 60.2732 77.8812 56.9984C78.518 55.1265 79.2313 53.1109 79.9973 51.0379L79.9925 51.0331ZM74.4533 32.3519C68.9715 32.3519 64.5238 27.8994 64.5238 22.4128C64.5238 16.9262 68.9715 12.4738 74.4533 12.4738C79.9351 12.4738 84.3828 16.9262 84.3828 22.4128C84.3828 27.8994 79.9399 32.3519 74.4533 32.3519Z" fill="#D9D9D9"/>
</svg>
