<svg width="20" height="19" viewBox="0 0 20 19" fill="none" xmlns="http://www.w3.org/2000/svg">
<path d="M8.46698 13.7476L15.19 7.02465L14.1362 5.9709L8.46698 11.6401L5.61698 8.79015L4.56323 9.8439L8.46698 13.7476ZM9.88798 18.9939C8.57398 18.9939 7.3389 18.7446 6.18273 18.2459C5.02656 17.7472 4.0209 17.0705 3.16573 16.2156C2.31056 15.3608 1.63348 14.3556 1.13448 13.1999C0.635647 12.0442 0.38623 10.8095 0.38623 9.49565C0.38623 8.18165 0.635564 6.94656 1.13423 5.7904C1.6329 4.63423 2.30965 3.62856 3.16448 2.7734C4.01931 1.91823 5.02456 1.24115 6.18023 0.742146C7.3359 0.243313 8.57065 -0.00610352 9.88448 -0.00610352C11.1985 -0.00610352 12.4336 0.243229 13.5897 0.741896C14.7459 1.24056 15.7516 1.91731 16.6067 2.77215C17.4619 3.62698 18.139 4.63223 18.638 5.7879C19.1368 6.94356 19.3862 8.17831 19.3862 9.49215C19.3862 10.8061 19.1369 12.0412 18.6382 13.1974C18.1396 14.3536 17.4628 15.3592 16.608 16.2144C15.7531 17.0696 14.7479 17.7466 13.5922 18.2456C12.4366 18.7445 11.2018 18.9939 9.88798 18.9939ZM9.88623 17.4939C12.1196 17.4939 14.0112 16.7189 15.5612 15.1689C17.1112 13.6189 17.8862 11.7272 17.8862 9.4939C17.8862 7.26056 17.1112 5.3689 15.5612 3.8189C14.0112 2.2689 12.1196 1.4939 9.88623 1.4939C7.6529 1.4939 5.76123 2.2689 4.21123 3.8189C2.66123 5.3689 1.88623 7.26056 1.88623 9.4939C1.88623 11.7272 2.66123 13.6189 4.21123 15.1689C5.76123 16.7189 7.6529 17.4939 9.88623 17.4939Z" fill="white"/>
</svg>
