<svg width="88" height="88" viewBox="0 0 88 88" fill="none" xmlns="http://www.w3.org/2000/svg">
<path d="M76.6494 8.88086H72.4482V15.1068C72.4482 19.2677 69.0546 22.6553 64.8941 22.6553H59.1488C54.9849 22.6553 51.5948 19.2643 51.5948 15.1068V8.88086H36.5851V15.1068C36.5851 19.2677 33.1949 22.6553 29.031 22.6553H23.2891C19.1218 22.6553 15.735 19.2643 15.735 15.1068V8.88086H11.5338C5.39827 8.88086 0.419922 13.8962 0.419922 19.9832V76.2136C0.419922 82.3446 5.39148 87.3159 11.5304 87.3159H76.6494C82.785 87.3159 87.7599 82.3446 87.7599 76.2136V19.9832C87.7599 13.8962 82.7816 8.88086 76.6494 8.88086ZM80.8642 76.2102C80.8642 78.5094 78.9502 80.4219 76.6494 80.4219H11.5304C9.19227 80.4219 7.31563 78.5094 7.31563 76.2102V33.1506H80.8642V76.2102Z" fill="white" fill-opacity="0.3"/>
<path d="M23.2844 0.84082H29.0264C30.5433 0.84082 31.7717 2.07177 31.7717 3.58418V15.107C31.7717 16.6228 30.5399 17.8503 29.0264 17.8503H23.2844C21.7675 17.8503 20.5391 16.6194 20.5391 15.107V3.58418C20.5391 2.06838 21.7709 0.84082 23.2844 0.84082Z" fill="white" fill-opacity="0.3"/>
<path d="M59.1497 0.84082H64.8916C66.4085 0.84082 67.637 2.07177 67.637 3.58418V15.107C67.637 16.6228 66.4051 17.8503 64.8916 17.8503H59.1497C57.6328 17.8503 56.4043 16.6194 56.4043 15.107V3.58418C56.4043 2.06838 57.6362 0.84082 59.1497 0.84082Z" fill="white" fill-opacity="0.3"/>
<path d="M63.5406 47.9058L42.6805 68.7506C41.7744 69.656 40.5629 70.1104 39.3514 70.1104C38.1399 70.1104 36.9318 69.656 36.0223 68.7506L25.0238 57.7602C23.2082 55.946 23.2082 52.9212 25.0238 50.9577C26.8393 49.1435 30.0157 49.1435 31.8312 50.9577L39.5007 58.6215L57.0318 41.1033C58.8474 39.2891 61.8744 39.2891 63.8393 41.1033C65.5021 42.9175 65.5021 45.9424 63.5373 47.9058H63.5406Z" fill="white"/>
</svg>
