<svg width="88" height="88" viewBox="0 0 88 88" fill="none" xmlns="http://www.w3.org/2000/svg">
<path d="M76.6494 8.88086H72.4482V15.1068C72.4482 19.2677 69.0546 22.6553 64.8941 22.6553H59.1488C54.9849 22.6553 51.5948 19.2643 51.5948 15.1068V8.88086H36.5851V15.1068C36.5851 19.2677 33.1949 22.6553 29.031 22.6553H23.2891C19.1218 22.6553 15.735 19.2643 15.735 15.1068V8.88086H11.5338C5.39827 8.88086 0.419922 13.8962 0.419922 19.9832V76.2136C0.419922 82.3446 5.39148 87.3159 11.5304 87.3159H76.6494C82.785 87.3159 87.7599 82.3446 87.7599 76.2136V19.9832C87.7599 13.8962 82.7816 8.88086 76.6494 8.88086ZM80.8642 76.2102C80.8642 78.5094 78.9502 80.4219 76.6494 80.4219H11.5304C9.19227 80.4219 7.31563 78.5094 7.31563 76.2102V33.1506H80.8642V76.2102Z" fill="#D9D9D9"/>
<path d="M23.2854 0.840576H29.0273C30.5442 0.840576 31.7727 2.07153 31.7727 3.58394V15.1067C31.7727 16.6225 30.5409 17.8501 29.0273 17.8501H23.2854C21.7685 17.8501 20.54 16.6191 20.54 15.1067V3.58394C20.54 2.06814 21.7719 0.840576 23.2854 0.840576Z" fill="#D9D9D9"/>
<path d="M59.1487 0.840576H64.8906C66.4075 0.840576 67.636 2.07153 67.636 3.58394V15.1067C67.636 16.6225 66.4041 17.8501 64.8906 17.8501H59.1487C57.6318 17.8501 56.4033 16.6191 56.4033 15.1067V3.58394C56.4033 2.06814 57.6352 0.840576 59.1487 0.840576Z" fill="#D9D9D9"/>
<path d="M63.5397 47.9055L42.6795 68.7503C41.7734 69.6558 40.5619 70.1102 39.3504 70.1102C38.1389 70.1102 36.9308 69.6558 36.0213 68.7503L25.0228 57.7599C23.2072 55.9457 23.2072 52.9209 25.0228 50.9575C26.8384 49.1433 30.0147 49.1433 31.8303 50.9575L39.4997 58.6213L57.0308 41.1031C58.8464 39.2889 61.8734 39.2889 63.8383 41.1031C65.5012 42.9173 65.5012 45.9421 63.5363 47.9055H63.5397Z" fill="#E52629"/>
</svg>
