<svg width="99" height="99" viewBox="0 0 99 99" fill="none" xmlns="http://www.w3.org/2000/svg">
<circle cx="49.5" cy="49.5288" r="49.103" fill="#E52629"/>
<path d="M74.2455 48.1984C74.2757 47.6171 74.1872 47.0358 73.9853 46.4899C73.7834 45.944 73.4723 45.445 73.0711 45.0233C72.6813 44.6078 72.2113 44.2756 71.6895 44.0469C71.1677 43.8181 70.6049 43.6975 70.0352 43.6924H57.8481C57.7914 43.6906 57.7358 43.6755 57.686 43.6483C57.6361 43.6211 57.5933 43.5826 57.5611 43.5358C57.5092 43.4638 57.4758 43.3801 57.4637 43.2922C57.4515 43.2043 57.4611 43.1147 57.4915 43.0313L60.7188 32.9754C61.3451 31.0269 62.3889 27.7735 59.5357 25.4422C58.2222 24.3723 56.004 23.8764 54.473 25.0769C53.1769 26.1033 52.8637 27.6517 52.5853 29.0261C52.4904 29.5722 52.3537 30.1102 52.1765 30.6354C51.3414 32.9058 49.2798 34.4107 47.2964 35.8634C46.9572 36.107 46.6266 36.3506 46.2961 36.6028C43.2077 39.0132 39.9487 41.1965 36.5447 43.1357V40.9088C36.5433 40.4478 36.3595 40.0061 36.0336 39.6801C35.7076 39.3541 35.2659 39.1704 34.8049 39.169H26.4888C26.0274 39.169 25.5849 39.3523 25.2586 39.6786C24.9323 40.0048 24.749 40.4474 24.749 40.9088V72.2159C24.749 72.6773 24.9323 73.1199 25.2586 73.4461C25.5849 73.7724 26.0274 73.9557 26.4888 73.9557H34.8049C35.2659 73.9543 35.7076 73.7706 36.0336 73.4446C36.3595 73.1186 36.5433 72.6769 36.5447 72.2159V70.0325L42.8252 71.5374C45.4402 72.1642 48.1139 72.5141 50.8021 72.5813C52.2548 72.6248 53.751 72.6422 55.2733 72.6422C57.6394 72.6422 60.075 72.5987 62.5542 72.503C63.114 72.5084 63.669 72.3994 64.1851 72.1825C64.7012 71.9655 65.1675 71.6454 65.5553 71.2416C66.0262 70.723 66.3678 70.1005 66.5522 69.4247C66.7366 68.749 66.7587 68.0392 66.6166 67.3533C66.489 66.7422 66.2243 66.1681 65.8424 65.6744C66.6965 65.5299 67.4791 65.108 68.0693 64.4739C68.5401 63.9553 68.8817 63.3328 69.0662 62.657C69.2506 61.9813 69.2727 61.2715 69.1305 60.5856C69.0047 59.9739 68.7398 59.3995 68.3563 58.9067C69.2104 58.7622 69.9931 58.3403 70.5832 57.7062C71.0541 57.1876 71.3957 56.5651 71.5801 55.8893C71.7646 55.2135 71.7866 54.5038 71.6445 53.8179C71.5188 53.2013 71.244 52.6249 70.8442 52.139C71.7084 52.0024 72.5018 51.5796 73.0972 50.9385C73.7839 50.1846 74.1895 49.2167 74.2455 48.1984ZM34.8049 72.2159H26.4888V40.9088H34.8049V72.2159ZM71.8272 49.7555C71.6247 49.9763 71.3787 50.1528 71.1048 50.274C70.8309 50.3953 70.5349 50.4586 70.2353 50.4601H67.7213C67.7039 50.4601 67.6952 50.4688 67.6778 50.4688C67.643 50.4688 67.6082 50.4601 67.5734 50.4601H64.581C64.3503 50.4601 64.1291 50.5518 63.9659 50.7149C63.8028 50.878 63.7112 51.0993 63.7112 51.33C63.7112 51.5607 63.8028 51.782 63.9659 51.9451C64.1291 52.1082 64.3503 52.1999 64.581 52.1999H67.5734C68.1234 52.2362 68.648 52.4448 69.0727 52.7962C69.4975 53.1475 69.8007 53.6237 69.9395 54.1571C70.0292 54.573 70.0191 55.0041 69.9103 55.4153C69.8014 55.8265 69.5968 56.2062 69.3132 56.5232C69.1107 56.744 68.8648 56.9205 68.5909 57.0417C68.3169 57.163 68.0209 57.2263 67.7213 57.2278H62.0671C61.8364 57.2278 61.6151 57.3195 61.452 57.4826C61.2888 57.6457 61.1972 57.867 61.1972 58.0977C61.1972 58.3284 61.2888 58.5497 61.452 58.7128C61.6151 58.8759 61.8364 58.9676 62.0671 58.9676H65.2074C65.7395 59.0085 66.2439 59.2217 66.6441 59.5749C67.0443 59.928 67.3187 60.4019 67.4256 60.9248C67.5152 61.3407 67.5052 61.7718 67.3963 62.183C67.2875 62.5942 67.0829 62.9739 66.7992 63.2909C66.5983 63.5142 66.3529 63.6931 66.0788 63.8159C65.8046 63.9388 65.5078 64.0029 65.2074 64.0042H59.5531C59.3224 64.0042 59.1011 64.0959 58.938 64.259C58.7749 64.4221 58.6832 64.6434 58.6832 64.8741C58.6832 65.1048 58.7749 65.3261 58.938 65.4892C59.1011 65.6523 59.3224 65.744 59.5531 65.744H62.6934C63.2248 65.7831 63.729 65.9945 64.1293 66.3462C64.5297 66.6978 64.8043 67.1706 64.9116 67.6925C65.0012 68.1084 64.9912 68.5395 64.8823 68.9507C64.7735 69.3619 64.5689 69.7416 64.2853 70.0586C64.0502 70.2917 63.77 70.4744 63.4619 70.5955C63.1538 70.7167 62.8242 70.7737 62.4933 70.7632C58.4484 70.9198 54.5252 70.9459 50.8456 70.8502C48.2778 70.7798 45.7243 70.4446 43.2254 69.8498L36.5447 68.2492V45.1016C40.3373 43.0338 43.9511 40.6537 47.3486 37.986C47.6618 37.7511 47.9923 37.5075 48.3229 37.2727C50.4193 35.733 52.7941 34.0019 53.8119 31.2357C54.0232 30.6267 54.1832 30.0011 54.2903 29.3654C54.5252 28.1911 54.7513 27.0776 55.5516 26.4426C56.3345 25.825 57.6394 26.1381 58.4397 26.7905C60.0576 28.1215 59.9098 29.8003 59.0573 32.4448L55.83 42.5007C55.7179 42.8459 55.6894 43.2129 55.7469 43.5713C55.8044 43.9297 55.9461 44.2694 56.1606 44.5623C56.3527 44.8307 56.606 45.0496 56.8994 45.2008C57.1928 45.3521 57.518 45.4314 57.8481 45.4322H70.0352C70.3692 45.4371 70.6987 45.5098 71.0038 45.6458C71.3088 45.7819 71.583 45.9785 71.8098 46.2238C72.048 46.4728 72.2326 46.768 72.3523 47.0912C72.472 47.4143 72.5242 47.7586 72.5057 48.1027C72.4763 48.7153 72.2366 49.299 71.8272 49.7555Z" fill="white"/>
<path d="M30.6433 70.0413C31.6042 70.0413 32.3831 69.2624 32.3831 68.3015C32.3831 67.3407 31.6042 66.5618 30.6433 66.5618C29.6825 66.5618 28.9036 67.3407 28.9036 68.3015C28.9036 69.2624 29.6825 70.0413 30.6433 70.0413Z" fill="white"/>
</svg>
