<svg width="90" height="83" viewBox="0 0 90 83" fill="none" xmlns="http://www.w3.org/2000/svg">
<path d="M50.9895 56.0447H48.4584V48.444H49.4548C50.0585 48.444 50.5459 47.953 50.5459 47.3493C50.5459 46.7456 50.0549 46.2546 49.4548 46.2546H39.5229C38.9192 46.2546 38.4319 46.7456 38.4319 47.3493C38.4319 47.953 38.9228 48.444 39.5229 48.444H40.5194V56.0447H37.9882C36.3589 56.0447 35.0352 57.3685 35.0352 58.9978V76.1777C35.0352 77.4615 35.8607 78.5416 37.0063 78.9489C36.9954 79.0508 36.9772 79.149 36.9772 79.2508C36.9772 81.011 38.4101 82.4438 40.1702 82.4438C41.9304 82.4438 43.3633 81.011 43.3633 79.2508C43.3633 79.2071 43.3524 79.1708 43.3524 79.1271H45.629C45.629 79.1671 45.6181 79.2071 45.6181 79.2508C45.6181 81.011 47.0509 82.4438 48.8111 82.4438C50.5713 82.4438 52.0042 81.011 52.0042 79.2508C52.0042 79.1453 51.9824 79.0471 51.9751 78.9489C53.1207 78.5416 53.9462 77.4615 53.9462 76.1777V58.9978C53.9462 57.3685 52.6261 56.0447 50.9932 56.0447H50.9895ZM42.7087 48.444H46.2727V56.0447H42.7087V48.444ZM40.1739 80.4727C39.4974 80.4727 38.9483 79.9236 38.9483 79.2471C38.9483 78.5707 39.5011 78.0216 40.1739 78.0216C40.8467 78.0216 41.3995 78.5707 41.3995 79.2471C41.3995 79.9236 40.8503 80.4727 40.1739 80.4727ZM40.8612 63.0855C40.2975 63.0855 39.8393 62.6272 39.8393 62.0635C39.8393 61.4999 40.2975 61.0416 40.8612 61.0416H48.1238C48.6875 61.0416 49.1457 61.4999 49.1457 62.0635C49.1457 62.6272 48.6875 63.0855 48.1238 63.0855H40.8612ZM48.8075 80.4727C48.1311 80.4727 47.5819 79.9236 47.5819 79.2471C47.5819 78.5707 48.1311 78.0216 48.8075 78.0216C49.4839 78.0216 50.0331 78.5707 50.0331 79.2471C50.0331 79.9236 49.4839 80.4727 48.8075 80.4727Z" fill="#E52629"/>
<path d="M12.2266 20.5648C12.2266 24.4998 15.416 27.6892 19.3509 27.6892C23.2859 27.6892 26.4753 24.4998 26.4753 20.5648C26.4753 16.6299 23.2859 13.4404 19.3509 13.4404C15.416 13.4404 12.2266 16.6299 12.2266 20.5648Z" fill="#D9D9D9"/>
<path d="M35.4979 52.8446L34.6178 44.6765L34.7851 44.7201C36.378 45.142 37.9854 44.1892 38.4073 42.5963C38.8146 41.0216 37.8763 39.396 36.2834 38.9741L33.9414 38.3668L33.4613 33.9154C33.4068 33.4244 33.0213 33.0317 32.5303 32.9735L27.8971 32.4207C26.7224 30.6169 25.6787 29.4858 23.9367 29.4858H14.7721C12.5864 29.4858 11.4918 31.2642 9.85158 33.9336C9.76066 34.079 9.65156 34.2536 9.55701 34.4064L4.71287 33.8281C4.39283 33.7954 4.06916 33.8972 3.84005 34.1263C3.6073 34.3554 3.49456 34.6755 3.53093 34.9991L4.12735 40.5233L1.658 42.5054C0.377872 43.5382 0.174215 45.4075 1.20705 46.6731C1.79984 47.4077 2.65811 47.7823 3.52002 47.7823C3.98916 47.7823 4.44375 47.6368 4.87288 47.4186L5.57478 53.932C5.62933 54.4266 6.01482 54.8157 6.50578 54.8776L12.3428 55.5722L9.42245 78.5709C9.17151 80.4584 10.5135 82.1786 12.39 82.4113C12.5464 82.4259 12.6846 82.4441 12.8264 82.4441C14.5284 82.4441 16.0122 81.1785 16.2304 79.4292L19.3362 54.9321L19.3944 54.9103L22.4893 79.4256C22.7075 81.1748 24.1913 82.4404 25.8932 82.4404C26.0351 82.4404 26.1878 82.4222 26.3333 82.4077C28.2208 82.1749 29.5482 80.4548 29.3118 78.5673L26.0605 53.0265L34.3196 54.0157C34.3996 54.0266 34.4796 54.0266 34.5596 54.0157C34.796 53.9902 35.0215 53.8847 35.1924 53.7138C35.4215 53.4883 35.5379 53.1647 35.5015 52.8446H35.4979ZM7.58953 52.8555L5.78571 36.0974L13.041 36.963L14.8485 53.7211L7.59317 52.8555H7.58953ZM16.9614 53.4956L15.1576 36.7375L22.0601 34.3445L23.8676 51.1026L16.965 53.4956H16.9614ZM25.9805 50.8735L24.1767 34.1154L31.432 34.9846L33.2358 51.7427L25.9805 50.8735Z" fill="#D9D9D9"/>
<path d="M41.4904 16.3461L46.029 12.1893C46.32 11.9238 46.6982 11.7747 47.0946 11.7747H63.2017V2.85016C63.2017 1.54093 64.26 0.479004 65.5693 0.479004C66.8785 0.479004 67.9368 1.54093 67.9368 2.85016V6.38143H84.0439C84.4367 6.38143 84.8185 6.53054 85.1095 6.79602L89.6481 10.9528C90.1245 11.3892 90.1245 12.142 89.6481 12.5784L85.1095 16.7352C84.8185 17.0007 84.4367 17.1498 84.0439 17.1498H67.9368V77.7416H69.8279C71.8354 77.7416 73.461 79.3708 73.461 81.3783V81.9638C73.461 82.2293 73.2464 82.4402 72.9846 82.4402H58.1576C57.8957 82.4402 57.6812 82.2257 57.6812 81.9638V81.3783C57.6812 79.3708 59.3068 77.7416 61.3143 77.7416H63.2054V22.5431H47.0982C46.7055 22.5431 46.3236 22.394 46.0327 22.1285L41.494 17.9717C41.0176 17.5353 41.0176 16.7825 41.494 16.3461H41.4904Z" fill="#D9D9D9"/>
</svg>
