<svg width="94" height="88" viewBox="0 0 94 88" fill="none" xmlns="http://www.w3.org/2000/svg">
<path d="M38.9314 5.01273C38.9928 5.01273 39.0542 5.00911 39.112 5.00189C40.2209 4.88269 41.3406 4.80684 42.4495 4.77794L42.7782 4.77072C43.8979 4.68403 44.9057 3.79909 44.8948 2.61796C44.884 1.43683 43.9232 0.490477 42.7457 0.501313L42.3484 0.508537C41.1203 0.537433 39.8777 0.620509 38.6497 0.754154C37.4794 0.880575 36.6341 1.93528 36.7606 3.10919C36.8798 4.22169 37.8333 5.03801 38.9314 5.01273Z" fill="#E52629"/>
<path d="M14.7719 16.4161C15.2921 16.4016 15.805 16.203 16.2059 15.8129C17.08 14.9641 18.0119 14.1405 18.9655 13.3712C19.883 12.6307 20.031 11.287 19.2942 10.3696C18.5573 9.45212 17.2137 9.30403 16.2962 10.0409C15.2343 10.8969 14.2049 11.8072 13.2332 12.7535C12.388 13.5734 12.37 14.9279 13.1899 15.7732C13.6197 16.2174 14.1976 16.4342 14.7683 16.4197L14.7719 16.4161Z" fill="#E52629"/>
<path d="M2.33131 40.2554C2.4469 40.2698 2.56248 40.277 2.67806 40.277C3.70749 40.2518 4.59244 39.486 4.73692 38.4313C4.90307 37.2177 5.13424 36.0004 5.41598 34.8121C5.69049 33.667 4.98253 32.5112 3.83391 32.2403C2.69251 31.9658 1.53667 32.6774 1.26576 33.8224C0.951518 35.1408 0.698677 36.4953 0.510852 37.8462C0.348311 39.0164 1.16463 40.0928 2.33131 40.2554Z" fill="#E52629"/>
<path d="M25.9002 8.69002C26.1891 8.6828 26.4781 8.61778 26.7562 8.48414C27.8615 7.96401 29.0029 7.48722 30.1551 7.07184C31.264 6.6709 31.8383 5.45004 31.441 4.33754C31.0437 3.22865 29.8192 2.65433 28.7103 3.05166C27.4317 3.514 26.1602 4.04135 24.9357 4.61927C23.8702 5.12496 23.4151 6.39639 23.9172 7.46194C24.2892 8.25297 25.0802 8.70447 25.9002 8.68641V8.69002Z" fill="#E52629"/>
<path d="M51.9392 5.70613C53.1384 5.97342 54.3304 6.30212 55.4862 6.68138C55.7246 6.76085 55.963 6.79335 56.2014 6.78613C57.0791 6.76446 57.8882 6.19737 58.1772 5.31242C58.542 4.1927 57.9316 2.98628 56.8119 2.61786C55.526 2.19886 54.2004 1.83405 52.8675 1.53425C51.7081 1.27418 50.5775 2.0002 50.3211 3.15244C50.0646 4.30467 50.7906 5.44607 51.9392 5.70252V5.70613Z" fill="#E52629"/>
<path d="M81.0781 33.6382C81.3382 34.6098 82.2267 35.2419 83.1875 35.2167C83.3537 35.213 83.5234 35.1878 83.6932 35.1408C84.831 34.8338 85.5028 33.6599 85.1958 32.5221C84.8418 31.2109 84.4228 29.8998 83.946 28.6247C83.5343 27.5194 82.3062 26.9523 81.2009 27.375C80.0956 27.7867 79.5394 29.0184 79.9511 30.1237C80.381 31.2723 80.7602 32.4535 81.0781 33.6346V33.6382Z" fill="#E52629"/>
<path d="M5.07325 51.2899C4.84208 50.0799 4.66509 48.8518 4.5495 47.6382C4.43753 46.4643 3.39004 45.6624 2.22336 45.713C1.05307 45.8285 0.189792 46.8688 0.301765 48.0427C0.431797 49.39 0.626847 50.7517 0.8833 52.0954C1.08196 53.1357 2.00303 53.8545 3.02884 53.8292C3.14443 53.8292 3.26362 53.8111 3.38282 53.7894C4.54228 53.5655 5.29719 52.4494 5.07325 51.2899Z" fill="#E52629"/>
<path d="M75.7283 21.9532C76.1509 22.5781 76.8444 22.9068 77.5452 22.8887C77.9425 22.8779 78.3362 22.7587 78.6902 22.5203C79.6654 21.8593 79.9183 20.5301 79.2573 19.5548C78.4915 18.4279 77.668 17.3262 76.8083 16.2823C76.0606 15.3721 74.7133 15.2421 73.8067 15.9934C72.8965 16.7447 72.7665 18.0883 73.5178 18.9986C74.2944 19.9449 75.0384 20.9382 75.7283 21.9568V21.9532Z" fill="#E52629"/>
<path d="M63.829 10.5466C64.8729 11.1895 65.8951 11.8902 66.8704 12.6307C67.2713 12.9305 67.7409 13.0714 68.2032 13.0605C68.8317 13.0461 69.4493 12.7535 69.8575 12.2117C70.5655 11.269 70.3776 9.92891 69.4385 9.22095C68.3549 8.40102 67.2207 7.62805 66.0649 6.91648C65.068 6.29522 63.7496 6.60946 63.1319 7.6136C62.5143 8.61775 62.8249 9.93252 63.829 10.5502V10.5466Z" fill="#E52629"/>
<path d="M41.1531 82.8734C39.9322 82.8048 38.7006 82.6748 37.4869 82.4905C36.3166 82.3136 35.233 83.1154 35.0596 84.2821C34.8826 85.4488 35.6845 86.536 36.8476 86.713C38.1913 86.9189 39.5602 87.0597 40.9147 87.1392C40.9725 87.1392 41.0303 87.1392 41.0881 87.1392C42.1861 87.1139 43.1 86.2434 43.165 85.1273C43.23 83.9498 42.3306 82.942 41.1567 82.8734H41.1531Z" fill="#E52629"/>
<path d="M53.9231 81.4974C52.7456 81.8261 51.5391 82.1043 50.3363 82.321C49.1769 82.5305 48.4075 83.6394 48.6134 84.7988C48.8012 85.8499 49.7259 86.5832 50.7626 86.5579C50.8709 86.5579 50.9793 86.5434 51.0876 86.5254C52.4241 86.287 53.7605 85.98 55.0717 85.6151C56.2059 85.2973 56.8705 84.1198 56.5526 82.982C56.2348 81.8442 55.0536 81.1868 53.9231 81.501V81.4974Z" fill="#E52629"/>
<path d="M65.5458 76.0361C64.5453 76.7296 63.4906 77.387 62.4178 77.9902C61.3884 78.5681 61.0235 79.8684 61.6015 80.8979C62.0024 81.613 62.7501 82.0067 63.5158 81.9887C63.8518 81.9815 64.1913 81.8912 64.5055 81.7142C65.6939 81.0459 66.8606 80.3199 67.9695 79.5506C68.9411 78.8787 69.1831 77.5495 68.5149 76.5815C67.8467 75.6099 66.5174 75.3678 65.5494 76.0361H65.5458Z" fill="#E52629"/>
<path d="M28.6235 80.0382C27.4821 79.5723 26.3624 79.0485 25.2896 78.4814C24.2457 77.9288 22.9598 78.3334 22.4072 79.3772C21.8582 80.4211 22.2591 81.7142 23.2994 82.2632C24.4913 82.8917 25.7411 83.4733 27.0089 83.9934C27.2907 84.109 27.5832 84.1595 27.865 84.1523C28.6885 84.1306 29.4579 83.6358 29.7902 82.8231C30.2344 81.7323 29.7143 80.4825 28.6235 80.0382Z" fill="#E52629"/>
<path d="M15.0466 70.7155C14.2302 69.8558 12.8793 69.8269 12.0305 70.636C11.1745 71.4487 11.1384 72.7996 11.9511 73.6557C12.8902 74.649 13.8799 75.5989 14.8949 76.4911C15.3139 76.8559 15.834 77.0293 16.3505 77.0185C16.9248 77.004 17.4919 76.7584 17.9037 76.2888C18.6766 75.4003 18.59 74.053 17.7014 73.2728C16.7876 72.4709 15.8918 71.6113 15.0429 70.7155H15.0466Z" fill="#E52629"/>
<path d="M7.86884 60.06C7.38122 58.9873 6.1134 58.5069 5.04425 59.0017C3.97148 59.4894 3.4983 60.7572 3.98592 61.8299C4.54579 63.058 5.17428 64.2825 5.85695 65.4672C6.2615 66.1716 7.00196 66.5581 7.75687 66.5364C8.10001 66.5292 8.44677 66.4353 8.76824 66.2511C9.79044 65.6623 10.1408 64.3584 9.55205 63.3362C8.938 62.267 8.37453 61.1653 7.86884 60.0564V60.06Z" fill="#E52629"/>
<path d="M9.74326 20.0098C8.74996 19.3814 7.43157 19.6739 6.79947 20.6745C6.07706 21.8195 5.39439 23.0151 4.78035 24.2287C4.24577 25.2798 4.66476 26.5657 5.71225 27.1002C6.03733 27.2664 6.38769 27.3423 6.73084 27.335C7.48936 27.317 8.21538 26.8907 8.58019 26.1683C9.14005 25.0703 9.75049 23.9903 10.4043 22.9573C11.0328 21.9603 10.7402 20.642 9.74326 20.0098Z" fill="#E52629"/>
<path d="M67.5005 63.1159C67.9267 62.5922 68.3348 62.0467 68.7033 61.5049L64.553 61.6783L64.4555 61.6964H64.358C63.9715 61.6964 63.6031 61.6386 63.2347 61.5411C59.5504 65.6949 54.5875 68.6856 48.9636 69.892C49.2164 69.6211 49.4295 69.3683 49.4873 69.2527C49.527 69.1949 49.7763 69.0577 49.9713 68.9601C50.3975 68.729 50.8635 68.4761 51.0766 68.1438C51.3656 67.6779 52.2794 66.7279 52.6659 66.5329C53.168 66.28 56.3501 63.4085 56.5452 62.9425C57.0292 61.7975 57.7083 60.4755 58.1164 60.1649C58.8135 59.6014 58.1742 58.5539 57.9214 58.1638L57.8816 58.0843C57.6107 57.6365 55.8083 57.445 55.5338 57.5028C55.2051 57.4847 53.6736 56.6504 53.5761 56.3975C53.5761 55.8738 52.0843 54.4362 51.6762 54.4362C51.5209 54.4362 50.589 54.2412 50.105 53.6416C49.5054 52.9228 47.4104 52.4388 46.8072 52.4388C46.204 52.4388 45.3913 52.3232 44.7917 52.0523C44.2679 51.8211 43.3758 52.1498 42.4439 52.558C42.2488 52.6555 42.0935 52.7313 41.9996 52.753C41.689 52.8505 39.9443 52.4821 39.5181 52.3051C39.4025 52.1895 39.3447 51.4888 39.305 51.1601C39.2653 50.6942 39.2472 50.4232 39.1497 50.2679C39.0161 50.0548 38.626 49.9176 37.7916 49.7225C37.5965 49.6647 37.3256 49.5853 37.192 49.5491C37.2317 49.4336 37.3292 49.2204 37.4051 49.0651C37.676 48.4041 37.8494 47.9599 37.6941 47.6853C37.6363 47.5698 37.5387 47.4903 37.4232 47.4722C37.015 47.3747 36.4732 47.7829 35.8917 48.2091C35.6388 48.3825 35.2523 48.675 35.1367 48.6931C34.7864 48.6931 34.1073 48.4005 33.2765 47.8984C32.7925 47.6059 33.3343 46.0527 33.6052 45.2978C33.7389 44.9294 33.8364 44.6585 33.8581 44.4815C33.8761 44.3262 34.7503 44.0733 36.0109 44.0733C36.3612 44.0733 36.8452 43.9758 37.3112 43.918C37.7374 43.8385 38.1636 43.7627 38.4165 43.7627C38.6115 43.7627 38.9402 44.2684 39.1533 44.5573C39.5037 45.0413 39.7529 45.4134 40.1213 45.352C40.6053 45.2544 40.5656 44.5934 40.5475 44.1275C40.5259 43.9722 40.5259 43.8169 40.5475 43.7374C40.5873 43.4448 41.2447 42.3395 41.7684 42.0289C42.4258 41.6388 43.2818 40.4179 43.0471 39.8147C43.0651 39.5438 44.1704 38.7853 44.5388 38.5325C44.7122 38.4169 44.8675 38.3194 44.9651 38.2399C45.0806 38.164 45.2179 38.0846 45.3515 38.0087C45.738 37.7956 46.2256 37.5428 46.2256 36.8818C46.2256 36.4917 47.4465 36.3002 48.1834 36.2027C48.3567 36.163 48.5121 36.1449 48.6674 36.1233C49.1514 36.0438 49.4042 35.9101 49.5198 35.697C49.6571 35.4442 49.5379 35.1516 49.3826 34.8049C49.3428 34.7073 49.3067 34.6098 49.267 34.4942C49.0358 33.891 49.1514 33.4648 49.7113 33.0783C49.9641 32.9049 50.4084 32.8652 50.8924 32.8074C51.3981 32.7496 51.9579 32.6702 52.4636 32.4571C52.832 32.3198 53.0451 32.1284 53.1029 31.8936C53.1788 31.5829 52.9874 31.312 52.7923 31.0773C52.7165 30.9797 52.637 30.8822 52.5973 30.7847C52.3264 30.2393 51.8423 29.8528 51.5317 29.5819C51.3583 29.4446 51.203 28.6897 51.0874 28.2418C51.0296 27.9493 50.9718 27.6783 50.9141 27.523C50.8382 27.3497 50.719 27.2305 50.5456 27.1546C50.1194 27.0173 49.4801 27.2124 49.1117 27.4074C49.0719 27.3099 49.0539 27.1763 49.0358 27.0571C48.9961 26.7862 48.9599 26.5117 48.8046 26.378C48.7071 26.2805 48.494 26.0674 48.2231 25.8326C47.8366 25.4822 47.349 25.038 47.0384 24.7273C46.8433 24.5323 46.6519 24.5142 46.5327 24.5323C46.0667 24.5901 45.6983 25.1355 45.3696 25.6953C45.3299 25.7748 45.2937 25.8326 45.254 25.8687C44.6905 26.7428 44.593 27.3641 45.0228 27.6747C45.0409 27.6928 45.0806 27.8301 44.9651 28.1226C44.8097 28.5705 44.4991 28.8812 44.3257 28.8812H44.3077C43.7839 28.8414 43.6683 29.5422 43.5311 30.2393C43.4733 30.4921 43.3938 30.9003 43.318 31.0339C43.1807 30.9364 43.0471 30.5282 43.0651 29.3254V29.1882C43.0651 29.0329 43.0073 28.8956 42.9315 28.8197C42.7581 28.6644 42.545 28.6825 42.35 28.7042C42.079 28.7439 41.9635 28.7439 41.9237 28.6464C41.6312 28.1804 40.1972 27.6169 39.6554 27.4219C39.6373 26.6634 39.6373 25.8507 39.6373 25.7712C39.8107 25.5184 42.0429 24.0049 42.545 23.8279C43.2638 23.5968 45.0265 22.3903 45.3768 22.1592C45.6875 21.9244 45.7272 21.6932 45.7055 21.5379C45.6261 20.9744 44.6183 20.5663 44.174 20.411C43.8453 19.6524 43.3216 19.6524 42.6823 19.6524C42.3716 19.6705 42.0213 19.6705 41.577 19.5946C39.9082 19.3237 38.514 19.266 37.3906 19.4213C36.596 19.5369 35.646 19.3237 34.8695 19.1684C34.483 19.089 34.1507 19.0131 33.8617 18.995C36.8272 17.85 40.0274 17.189 43.401 17.189C47.0456 17.189 50.5167 17.9476 53.6773 19.266C53.7531 19.5585 53.8506 19.8475 53.9698 20.1184C54.3202 20.8769 54.9017 22.235 54.9017 23.2247C54.9017 24.2144 55.0173 25.2836 54.9017 25.5942C54.7861 25.9229 56.8992 28.2924 57.3832 28.3502C57.8491 28.408 58.1381 28.0973 58.4307 27.6314C58.7232 27.1654 59.1278 26.6417 59.9622 26.0024C60.6593 25.4389 62.3461 25.6123 62.8121 25.6737C63.6862 26.6056 64.4808 27.5953 65.214 28.6247C65.0587 28.762 64.9034 28.8956 64.7878 28.9931C64.4194 29.3796 63.3322 30.4488 63.4514 31.2831C63.5886 32.1175 64.4808 33.1289 65.5644 33.7104C66.63 34.2739 66.7672 35.3611 66.7672 35.5562C66.7672 35.7512 68.2987 36.7012 68.2987 36.7012C68.2987 36.7012 67.6594 37.9618 67.3307 37.9618C67.0201 37.9618 66.7672 39.244 66.7672 39.7497C66.7672 40.2554 67.4065 41.1476 68.0675 41.6713C68.7466 42.1951 69.8122 40.7972 69.8122 40.7791C69.9097 41.5738 69.9494 42.4118 69.9675 43.2245C69.3281 43.1848 68.1434 43.7085 67.775 44.0191C67.3307 44.4056 66.3807 47.5336 65.9328 47.8443C65.7956 47.9418 65.6222 48.4077 65.4488 49.0109C65.7595 48.8954 66.0882 48.7978 66.4385 48.74L74.0779 47.3422C74.2152 46.1972 74.273 45.0305 74.273 43.8458C74.273 26.797 60.4281 12.916 43.4047 12.916C26.3812 12.916 12.5146 26.8079 12.5146 43.8566C12.5146 60.9053 26.3776 74.7683 43.401 74.7683C51.3511 74.7683 58.604 71.7378 64.0907 66.7893C65.3296 65.6624 66.4746 64.4415 67.5041 63.1195L67.5005 63.1159ZM43.8453 69.5056C43.7297 69.7403 43.69 70.1088 43.69 70.4772C43.5925 70.4772 43.495 70.4953 43.3974 70.4953C28.7218 70.4953 16.7768 58.5358 16.7768 43.8566C16.7768 36.8493 19.5111 30.4777 23.9503 25.7206C24.1454 25.8362 24.3585 25.9735 24.6077 26.1469C24.763 26.3202 24.8389 27.6025 24.745 28.9426V29.0003L24.763 29.0401C24.7811 29.0798 25.8864 31.7961 24.8208 33.9524C23.6975 36.3002 23.9106 40.0495 24.4921 40.902C24.9978 41.6207 27.5551 44.9005 27.9235 45.2689C28.2161 45.5615 29.0685 47.949 29.1444 48.2777C29.2202 48.5883 30.889 50.6255 32.6155 50.5677C33.645 50.528 34.8261 51.1131 35.581 51.4996C36.0072 51.7127 36.2601 51.85 36.4551 51.8681C36.531 51.8681 36.6285 52.0631 36.7441 52.2365C36.9969 52.6627 37.3654 53.3056 38.2936 53.8294C38.5645 53.9847 38.8174 54.122 39.0702 54.2556C40.0021 54.7613 41.2627 55.4584 41.3603 55.6751C41.3422 55.751 41.1471 55.9677 40.9918 56.1411C40.45 56.7804 39.5001 57.8496 39.771 59.3052C40.1394 61.3063 42.9315 63.6938 43.8634 64.2754C44.463 64.6618 44.174 68.7615 43.8453 69.4983V69.5056Z" fill="#D9D9D9"/>
<path d="M93.3546 64.0622L86.2895 52.8722L89.0382 46.5837C89.8473 44.7343 89.8401 42.6502 89.0635 40.8297C88.742 40.0748 87.8607 39.6847 87.0841 39.9628C85.2203 40.6274 83.6888 42.0361 82.8797 43.8855L80.131 50.174L67.1277 52.5615C66.3764 52.6988 65.7407 53.2009 65.4336 53.9016L63.9816 57.2247C63.8588 57.5064 64.0719 57.8206 64.3789 57.8062L77.2016 57.2463L74.2 66.0127L69.2154 66.6665C68.6556 66.7387 68.1752 67.0999 67.9476 67.6201L67.5214 68.5953C67.4203 68.8265 67.5467 69.0974 67.7923 69.1624L72.7697 70.5169C72.7191 71.3802 73.1742 72.2146 74.0014 72.5758C74.8285 72.937 75.746 72.7058 76.3456 72.0845L80.7161 74.8297C80.9292 74.9633 81.2146 74.8766 81.3157 74.6454L81.7419 73.6702C81.9695 73.1537 81.9081 72.5541 81.583 72.0917L78.6825 67.9813L83.082 59.8253L91.3643 69.6392C91.563 69.874 91.9387 69.8198 92.0615 69.538L93.5135 66.215C93.8205 65.5143 93.7591 64.7052 93.351 64.0586L93.3546 64.0622Z" fill="#E52629"/>
</svg>
